<?xml version="1.0" standalone="no"?>
<!DOCTYPE svg PUBLIC "-//W3C//DTD SVG 20010904//EN"
 "http://www.w3.org/TR/2001/REC-SVG-20010904/DTD/svg10.dtd">
<svg version="1.0" xmlns="http://www.w3.org/2000/svg"
 width="1600.000000pt" height="900.000000pt" viewBox="0 0 1600.000000 900.000000"
 preserveAspectRatio="xMidYMid meet">

<g transform="translate(0.000000,900.000000) scale(0.100000,-0.100000)"
fill="#000000" stroke="none">
<path d="M12665 8910 c-214 -34 -407 -133 -551 -282 -190 -198 -274 -418 -274
-722 0 -292 82 -511 264 -703 161 -171 373 -271 619 -294 438 -40 803 142
1005 501 18 31 43 87 57 125 24 67 25 79 25 300 0 166 -3 234 -12 243 -17 17
-1079 17 -1096 0 -13 -13 -18 -401 -6 -432 5 -14 39 -16 270 -16 219 0 264 -2
264 -14 0 -22 -88 -114 -134 -140 -129 -73 -323 -71 -464 5 -138 74 -212 221
-212 421 0 145 31 244 107 343 70 90 216 144 353 131 132 -13 213 -56 267
-141 l28 -45 308 0 307 0 -6 28 c-42 173 -118 314 -230 428 -135 136 -258 203
-459 249 -84 19 -344 28 -430 15z"/>
<path d="M2810 7905 l0 -995 283 2 282 3 3 383 2 382 295 0 295 0 0 -385 0
-385 285 0 285 0 0 995 0 995 -285 0 -285 0 0 -365 0 -365 -295 0 -295 0 0
365 0 365 -285 0 -285 0 0 -995z"/>
<path d="M4715 8888 c-3 -7 -4 -454 -3 -993 l3 -980 628 -3 c345 -1 627 1 627
5 0 20 1 459 0 471 0 9 -75 12 -340 12 l-341 0 3 143 3 142 300 5 300 5 0 230
0 230 -302 3 -303 2 0 130 0 130 340 2 341 3 0 235 0 235 -626 3 c-495 2 -627
0 -630 -10z"/>
<path d="M6172 7908 l3 -993 583 -3 582 -2 0 235 0 235 -290 0 c-278 0 -290 1
-300 20 -7 13 -10 258 -10 757 l1 738 -286 3 -285 2 2 -992z"/>
<path d="M7480 7905 l0 -995 285 0 285 0 0 335 0 335 108 0 c316 0 484 45 638
169 233 187 292 539 141 826 -45 85 -146 181 -245 233 -164 87 -207 92 -759
92 l-453 0 0 -995z m795 505 c85 -14 112 -27 137 -69 29 -46 31 -149 4 -199
-30 -58 -82 -73 -233 -70 l-128 3 -3 164 c-2 125 1 166 10 173 18 11 141 10
213 -2z"/>
<path d="M9147 8893 c-10 -9 -8 -1956 1 -1971 7 -9 71 -12 288 -10 l279 3 3
993 2 992 -283 0 c-156 0 -287 -3 -290 -7z"/>
<path d="M9876 8884 c-9 -24 -7 -1947 2 -1962 7 -9 71 -12 288 -10 l279 3 5
499 c5 456 6 497 21 480 9 -11 98 -145 199 -299 101 -154 244 -371 317 -482
l133 -203 270 0 270 0 5 23 c3 12 4 459 3 992 l-3 970 -285 0 -285 0 -3 -492
c-1 -271 -6 -493 -10 -493 -4 0 -18 17 -32 38 -14 22 -160 244 -325 495 l-299
457 -272 0 c-239 0 -273 -2 -278 -16z"/>
<path d="M5925 6860 c-274 -27 -508 -159 -619 -350 -62 -106 -86 -203 -86
-340 0 -166 48 -300 147 -410 114 -125 222 -183 548 -290 214 -71 268 -95 325
-147 37 -33 40 -39 40 -88 0 -61 -23 -98 -77 -120 -89 -37 -187 -27 -247 25
-36 32 -48 57 -66 138 l-12 52 -335 0 -335 0 7 -77 c16 -196 78 -336 202 -459
151 -149 356 -227 634 -241 379 -19 698 140 830 413 48 99 69 191 69 306 0
181 -48 299 -174 423 -99 98 -200 151 -476 250 -231 83 -361 145 -385 182 -21
31 -23 104 -4 139 29 55 142 80 216 49 68 -29 100 -73 112 -154 l6 -46 340 0
340 0 -3 60 c-5 78 -26 179 -52 244 -81 206 -292 366 -560 425 -83 18 -281 26
-385 16z"/>
<path d="M12305 6861 c-220 -20 -419 -111 -550 -253 -108 -116 -158 -253 -158
-438 0 -177 47 -307 151 -416 124 -131 220 -181 567 -293 302 -98 384 -170
329 -287 -25 -52 -81 -77 -175 -78 -66 -1 -80 2 -116 26 -46 31 -80 90 -89
161 l-7 47 -335 0 -335 0 6 -94 c21 -353 288 -610 698 -670 445 -66 823 93
970 407 108 233 83 502 -62 674 -100 119 -201 179 -454 272 -437 161 -475 183
-475 275 0 113 128 173 246 115 52 -24 81 -68 96 -143 l12 -56 338 0 338 0 0
36 c0 61 -21 173 -46 246 -95 279 -379 456 -754 471 -63 3 -151 2 -195 -2z"/>
<path d="M14125 6860 c-295 -29 -542 -181 -645 -396 -83 -171 -79 -437 7 -597
36 -66 139 -176 210 -223 77 -51 199 -102 428 -178 293 -98 355 -139 355 -235
0 -88 -61 -133 -185 -135 -119 -2 -177 48 -206 177 l-12 57 -334 0 -335 0 8
-92 c26 -341 263 -587 639 -663 113 -23 294 -30 396 -16 344 49 577 225 671
506 20 60 23 89 22 210 0 128 -2 146 -27 210 -55 140 -156 251 -300 329 -45
24 -152 70 -237 101 -342 125 -439 169 -467 212 -23 34 -21 111 2 146 40 62
168 74 246 23 43 -29 66 -70 78 -140 l7 -41 339 0 340 0 -3 50 c-15 246 -113
423 -307 554 -166 113 -429 166 -690 141z"/>
<path d="M1260 5704 l0 -1135 608 4 c565 3 613 5 692 24 257 60 425 198 497
406 34 99 42 265 18 357 -35 133 -116 256 -222 332 l-62 45 69 62 c79 70 134
158 162 260 26 94 25 247 -3 337 -70 229 -238 367 -518 424 -93 19 -136 20
-670 20 l-571 0 0 -1136z m1051 570 c19 -11 44 -36 57 -55 20 -28 23 -44 20
-92 -5 -65 -26 -101 -79 -132 -31 -18 -52 -20 -219 -20 l-185 0 -3 150 c-1 82
0 156 3 163 4 12 36 14 189 10 159 -4 188 -7 217 -24z m35 -835 c66 -33 87
-65 92 -142 4 -83 -16 -123 -82 -156 -48 -25 -56 -25 -250 -26 l-201 0 -3 165
c-1 90 0 171 3 178 5 12 37 14 199 10 180 -5 198 -7 242 -29z"/>
<path d="M3193 6073 c4 -821 3 -803 55 -954 58 -166 181 -320 337 -420 270
-174 686 -198 1002 -58 201 89 392 293 459 489 59 177 59 169 59 970 l0 735
-320 0 -320 0 -5 -730 -5 -730 -23 -50 c-30 -65 -75 -112 -137 -141 -67 -32
-229 -35 -298 -5 -62 27 -111 79 -139 148 l-23 58 -3 728 -3 727 -320 0 -320
0 4 -767z"/>
<path d="M7072 5708 l3 -1133 320 0 320 0 0 1130 0 1130 -323 3 -322 2 2
-1132z"/>
<path d="M7852 5708 l3 -1133 320 0 320 0 2 574 c2 316 4 579 6 584 1 5 165
-236 362 -537 198 -301 373 -565 388 -587 l29 -39 304 0 304 0 0 1135 0 1135
-320 0 -320 0 0 -587 c0 -512 -2 -585 -14 -573 -8 8 -120 175 -248 370 -129
195 -298 453 -377 573 l-143 217 -309 0 -309 0 2 -1132z"/>
<path d="M10050 5705 l0 -1135 714 0 714 0 6 23 c8 29 8 465 0 494 l-6 23
-392 2 -391 3 -3 173 -2 172 350 0 350 0 -2 263 -3 262 -348 3 -348 2 3 153 3
152 391 3 392 2 6 23 c8 29 8 481 0 501 -6 14 -78 16 -720 16 l-714 0 0 -1135z"/>
<path d="M8645 4518 c-105 -9 -160 -20 -270 -55 -343 -110 -612 -408 -694
-768 -30 -130 -30 -356 -1 -495 41 -194 153 -393 300 -533 72 -70 187 -155
255 -189 51 -26 227 -86 290 -98 87 -18 364 -15 445 4 222 53 386 142 535 291
229 229 333 529 305 875 -32 377 -245 697 -577 863 -156 78 -393 121 -588 105z
m220 -573 c219 -57 336 -231 335 -498 -1 -119 -17 -196 -60 -283 -75 -152
-215 -234 -403 -234 -192 0 -327 81 -408 245 -32 66 -59 188 -59 270 0 83 29
213 61 278 59 116 170 203 289 226 72 14 181 12 245 -4z"/>
<path d="M6475 4514 c-244 -18 -489 -127 -655 -294 -196 -195 -300 -466 -300
-780 0 -311 102 -573 301 -770 208 -206 450 -300 772 -300 259 0 507 89 689
247 132 115 226 265 287 456 17 53 31 99 31 102 0 3 -146 5 -324 5 l-325 0
-23 -47 c-117 -235 -475 -274 -662 -72 -64 69 -102 147 -121 248 -20 104 -19
201 5 295 56 223 207 346 426 346 153 0 253 -53 336 -177 l49 -73 314 0 c193
0 316 4 320 10 10 16 -64 221 -111 304 -140 250 -374 418 -664 479 -77 16
-257 27 -345 21z"/>
<path d="M2400 4497 c-3 -3 -4 -481 -2 -1062 l2 -1057 563 4 c540 4 565 5 652
27 314 77 485 282 485 579 0 109 -28 207 -84 294 -33 53 -133 154 -171 175
-19 11 -16 15 41 67 122 110 166 214 167 391 0 173 -38 271 -152 388 -67 69
-125 108 -206 136 -157 54 -152 53 -740 58 -302 3 -552 2 -555 0z m963 -530
c48 -21 77 -69 77 -130 0 -57 -19 -97 -57 -123 -24 -17 -51 -19 -205 -22
l-178 -4 0 145 c0 107 3 147 13 151 26 12 313 -2 350 -17z m36 -775 c60 -23
84 -58 89 -129 3 -48 0 -64 -20 -93 -41 -61 -70 -69 -268 -70 -96 -1 -181 -1
-187 -1 -10 1 -13 39 -13 156 l0 155 178 -1 c141 0 186 -3 221 -17z"/>
<path d="M4170 4493 c0 -7 0 -2083 0 -2105 0 -5 299 -8 665 -8 l665 0 0 255 0
255 -365 0 -365 0 0 160 0 160 325 0 325 0 0 245 0 245 -309 0 c-170 0 -316 3
-325 6 -14 5 -16 27 -16 139 0 115 2 134 17 139 9 4 173 6 365 6 l348 -1 1
253 0 253 -665 3 c-366 1 -666 -1 -666 -5z"/>
<path d="M9937 4493 c-10 -9 -8 -2086 1 -2101 7 -9 74 -12 303 -10 l294 3 5
454 5 454 170 -454 170 -454 238 0 239 0 40 105 c64 170 208 557 245 660 63
176 63 178 63 -323 l0 -447 298 2 297 3 0 1055 0 1055 -334 0 -333 0 -250
-625 c-137 -344 -254 -629 -258 -634 -6 -6 -14 3 -20 20 -6 16 -74 184 -151
374 -77 190 -185 458 -241 595 -56 138 -106 256 -111 263 -7 9 -87 12 -337 12
-179 0 -330 -3 -333 -7z"/>
<path d="M12480 3440 l0 -1060 665 0 c437 0 665 3 665 10 0 6 0 116 0 245 0
129 0 240 0 245 0 6 -128 10 -365 10 l-365 0 0 160 0 160 325 0 325 0 0 245 0
245 -309 0 c-170 0 -316 3 -325 6 -14 5 -16 27 -16 139 0 115 2 134 17 139 9
4 173 6 365 6 l349 -1 0 253 0 253 -665 3 -666 2 0 -1060z"/>
<path d="M4415 2308 c-437 -90 -724 -337 -844 -728 -70 -226 -67 -516 7 -746
82 -250 278 -476 520 -598 194 -98 493 -140 722 -101 335 56 615 258 774 557
73 138 77 163 74 453 l-3 260 -600 0 -600 0 0 -240 0 -240 298 -3 c163 -1 297
-6 297 -10 0 -16 -69 -105 -103 -133 -81 -67 -175 -98 -295 -99 -259 -1 -437
131 -497 366 -19 76 -19 258 -1 334 43 175 152 295 311 340 179 51 403 -8 476
-126 42 -68 20 -64 363 -64 242 0 316 3 324 13 15 17 -44 193 -97 289 -129
235 -375 410 -651 464 -101 19 -402 27 -475 12z"/>
<path d="M7652 1218 l3 -1083 685 0 685 0 0 255 0 255 -375 5 -375 5 -3 162
-2 163 332 2 333 3 0 250 0 250 -332 3 -333 2 0 145 0 145 374 0 c332 0 375 2
380 16 3 9 6 126 6 260 l0 244 -690 0 -690 0 2 -1082z"/>
<path d="M10930 2046 c0 -222 2 -255 16 -260 9 -3 130 -6 269 -6 223 0 254 -2
259 -16 3 -9 6 -377 6 -818 l0 -801 305 -3 305 -2 0 820 0 820 263 0 c191 0
266 3 275 12 9 9 12 80 12 260 l0 248 -855 0 -855 0 0 -254z"/>
<path d="M5792 1200 l3 -1081 305 0 305 0 3 381 c2 302 5 380 15 380 11 0 131
-211 381 -667 l51 -93 338 0 c185 0 340 0 344 -1 4 0 9 3 10 8 2 4 -103 190
-232 412 -129 222 -235 407 -235 411 0 3 28 20 62 36 163 76 300 252 339 434
8 37 14 114 13 180 -1 95 -6 129 -27 195 -83 252 -273 410 -560 466 -88 17
-147 19 -607 19 l-510 0 2 -1080z m985 527 c55 -29 85 -79 90 -151 6 -75 -7
-123 -46 -160 -43 -41 -116 -56 -273 -56 l-138 0 0 196 0 196 168 -4 c134 -3
173 -7 199 -21z"/>
<path d="M9843 2083 c-39 -109 -144 -398 -233 -643 -300 -827 -470 -1301 -470
-1311 0 -6 121 -8 323 -7 l322 3 55 160 c30 88 58 168 62 178 7 16 33 17 335
17 180 0 333 -4 339 -8 6 -4 37 -85 69 -179 l58 -173 328 0 328 0 -43 123
c-24 67 -92 255 -151 417 -59 162 -162 448 -230 635 -68 187 -171 473 -230
635 -59 162 -112 307 -117 323 l-10 27 -332 0 -332 0 -71 -197z m487 -853 c44
-129 80 -238 80 -242 0 -5 -74 -8 -165 -8 -91 0 -165 3 -165 8 0 6 138 426
155 471 3 8 7 12 10 9 2 -2 40 -109 85 -238z"/>
</g>
</svg>
