<?xml version="1.0" encoding="UTF-8" standalone="no" ?>
<!DOCTYPE svg PUBLIC "-//W3C//DTD SVG 1.1//EN" "http://www.w3.org/Graphics/SVG/1.1/DTD/svg11.dtd">
<svg xmlns="http://www.w3.org/2000/svg" xmlns:xlink="http://www.w3.org/1999/xlink" version="1.1" width="450" height="750" viewBox="0 0 450 750" xml:space="preserve">
<desc>Created with Fabric.js 5.2.4</desc>
<defs>
</defs>
<rect x="0" y="0" width="100%" height="100%" fill="transparent"></rect>
<g transform="matrix(1 0 0 1 225 375)" id="513845cb-7c94-47d2-ab0e-7cc145b237d3"  >
<rect style="stroke: none; stroke-width: 1; stroke-dasharray: none; stroke-linecap: butt; stroke-dashoffset: 0; stroke-linejoin: miter; stroke-miterlimit: 4; fill: rgb(255,255,255); fill-rule: nonzero; opacity: 1; visibility: hidden;" vector-effect="non-scaling-stroke"  x="-225" y="-375" rx="0" ry="0" width="450" height="750" />
</g>
<g transform="matrix(Infinity NaN NaN Infinity 0 0)" id="33362c83-4c70-4b47-aa27-0e9f3579ae33"  >
</g>
<g transform="matrix(0.22 0 0 0.54 227.03 375.64)"  >
<g style="" vector-effect="non-scaling-stroke"   >
		<g transform="matrix(0.13 0 0 -0.13 616.39 -452.3)"  >
<path style="stroke: none; stroke-width: 1; stroke-dasharray: none; stroke-linecap: butt; stroke-dashoffset: 0; stroke-linejoin: miter; stroke-miterlimit: 4; fill: rgb(0,0,0); fill-rule: nonzero; opacity: 1;" vector-effect="non-scaling-stroke"  transform=" translate(-12825, -7909.84)" d="M 12665 8910 C 12451 8876 12258 8777 12114 8628 C 11924 8430 11840 8210 11840 7906 C 11840 7614 11922 7395 12104 7203 C 12265 7032 12477 6932 12723 6909 C 13161 6869 13526 7051 13728 7410 C 13746 7441 13771 7497 13785 7535 C 13809 7602 13810 7614 13810 7835 C 13810 8001 13807 8069 13798 8078 C 13781 8095 12719 8095 12702 8078 C 12689 8065 12684 7677 12696 7646 C 12701 7632 12735 7630 12966 7630 C 13185 7630 13230 7628 13230 7616 C 13230 7594 13142 7502 13096 7476 C 12967 7403 12773 7405 12632 7481 C 12494 7555 12420 7702 12420 7902 C 12420 8047 12451 8146 12527 8245 C 12597 8335 12743 8389 12880 8376 C 13012 8363 13093 8320 13147 8235 L 13175 8190 L 13483 8190 L 13790 8190 L 13784 8218 C 13742 8391 13666 8532 13554 8646 C 13419 8782 13296 8849 13095 8895 C 13011 8914 12751 8923 12665 8910 z" stroke-linecap="round" />
</g>
		<g transform="matrix(0.13 0 0 -0.13 -603.61 -451.66)"  >
<path style="stroke: none; stroke-width: 1; stroke-dasharray: none; stroke-linecap: butt; stroke-dashoffset: 0; stroke-linejoin: miter; stroke-miterlimit: 4; fill: rgb(0,0,0); fill-rule: nonzero; opacity: 1;" vector-effect="non-scaling-stroke"  transform=" translate(-3675, -7905)" d="M 2810 7905 L 2810 6910 L 3093 6912 L 3375 6915 L 3378 7298 L 3380 7680 L 3675 7680 L 3970 7680 L 3970 7295 L 3970 6910 L 4255 6910 L 4540 6910 L 4540 7905 L 4540 8900 L 4255 8900 L 3970 8900 L 3970 8535 L 3970 8170 L 3675 8170 L 3380 8170 L 3380 8535 L 3380 8900 L 3095 8900 L 2810 8900 L 2810 7905 z" stroke-linecap="round" />
</g>
		<g transform="matrix(0.13 0 0 -0.13 -381.44 -451.69)"  >
<path style="stroke: none; stroke-width: 1; stroke-dasharray: none; stroke-linecap: butt; stroke-dashoffset: 0; stroke-linejoin: miter; stroke-miterlimit: 4; fill: rgb(0,0,0); fill-rule: nonzero; opacity: 1;" vector-effect="non-scaling-stroke"  transform=" translate(-5341.31, -7905.22)" d="M 4715 8888 C 4712 8881 4711 8434 4712 7895 L 4715 6915 L 5343 6912 C 5688 6911 5970 6913 5970 6917 C 5970 6937 5971 7376 5970 7388 C 5970 7397 5895 7400 5630 7400 L 5289 7400 L 5292 7543 L 5295 7685 L 5595 7690 L 5895 7695 L 5895 7925 L 5895 8155 L 5593 8158 L 5290 8160 L 5290 8290 L 5290 8420 L 5630 8422 L 5971 8425 L 5971 8660 L 5971 8895 L 5345 8898 C 4850 8900 4718 8898 4715 8888 z" stroke-linecap="round" />
</g>
		<g transform="matrix(0.13 0 0 -0.13 -192.94 -451.66)"  >
<path style="stroke: none; stroke-width: 1; stroke-dasharray: none; stroke-linecap: butt; stroke-dashoffset: 0; stroke-linejoin: miter; stroke-miterlimit: 4; fill: rgb(0,0,0); fill-rule: nonzero; opacity: 1;" vector-effect="non-scaling-stroke"  transform=" translate(-6755, -7905)" d="M 6172 7908 L 6175 6915 L 6758 6912 L 7340 6910 L 7340 7145 L 7340 7380 L 7050 7380 C 6772 7380 6760 7381 6750 7400 C 6743 7413 6740 7658 6740 8157 L 6741 8895 L 6455 8898 L 6170 8900 L 6172 7908 z" stroke-linecap="round" />
</g>
		<g transform="matrix(0.13 0 0 -0.13 6.4 -451.66)"  >
<path style="stroke: none; stroke-width: 1; stroke-dasharray: none; stroke-linecap: butt; stroke-dashoffset: 0; stroke-linejoin: miter; stroke-miterlimit: 4; fill: rgb(0,0,0); fill-rule: nonzero; opacity: 1;" vector-effect="non-scaling-stroke"  transform=" translate(-8250.09, -7905)" d="M 7480 7905 L 7480 6910 L 7765 6910 L 8050 6910 L 8050 7245 L 8050 7580 L 8158 7580 C 8474 7580 8642 7625 8796 7749 C 9029 7936 9088 8288 8937 8575 C 8892 8660 8791 8756 8692 8808 C 8528 8895 8485 8900 7933 8900 L 7480 8900 L 7480 7905 z M 8275 8410 C 8360 8396 8387 8383 8412 8341 C 8441 8295 8443 8192 8416 8142 C 8386 8084 8334 8069 8183 8072 L 8055 8075 L 8052 8239 C 8050 8364 8053 8405 8062 8412 C 8080 8423 8203 8422 8275 8410 z" stroke-linecap="round" />
</g>
		<g transform="matrix(0.13 0 0 -0.13 163.74 -451.75)"  >
<path style="stroke: none; stroke-width: 1; stroke-dasharray: none; stroke-linecap: butt; stroke-dashoffset: 0; stroke-linejoin: miter; stroke-miterlimit: 4; fill: rgb(0,0,0); fill-rule: nonzero; opacity: 1;" vector-effect="non-scaling-stroke"  transform=" translate(-9430.17, -7905.7)" d="M 9147 8893 C 9137 8884 9139 6937 9148 6922 C 9155 6913 9219 6910 9436 6912 L 9715 6915 L 9718 7908 L 9720 8900 L 9437 8900 C 9281 8900 9150 8897 9147 8893 z" stroke-linecap="round" />
</g>
		<g transform="matrix(0.13 0 0 -0.13 342.29 -451.66)"  >
<path style="stroke: none; stroke-width: 1; stroke-dasharray: none; stroke-linecap: butt; stroke-dashoffset: 0; stroke-linejoin: miter; stroke-miterlimit: 4; fill: rgb(0,0,0); fill-rule: nonzero; opacity: 1;" vector-effect="non-scaling-stroke"  transform=" translate(-10769.27, -7905)" d="M 9876 8884 C 9867 8860 9869 6937 9878 6922 C 9885 6913 9949 6910 10166 6912 L 10445 6915 L 10450 7414 C 10455 7870 10456 7911 10471 7894 C 10480 7883 10569 7749 10670 7595 C 10771 7441 10914 7224 10987 7113 L 11120 6910 L 11390 6910 L 11660 6910 L 11665 6933 C 11668 6945 11669 7392 11668 7925 L 11665 8895 L 11380 8895 L 11095 8895 L 11092 8403 C 11091 8132 11086 7910 11082 7910 C 11078 7910 11064 7927 11050 7948 C 11036 7970 10890 8192 10725 8443 L 10426 8900 L 10154 8900 C 9915 8900 9881 8898 9876 8884 z" stroke-linecap="round" />
</g>
		<g transform="matrix(0.13 0 0 -0.13 -283.08 -158.71)"  >
<path style="stroke: none; stroke-width: 1; stroke-dasharray: none; stroke-linecap: butt; stroke-dashoffset: 0; stroke-linejoin: miter; stroke-miterlimit: 4; fill: rgb(0,0,0); fill-rule: nonzero; opacity: 1;" vector-effect="non-scaling-stroke"  transform=" translate(-6079, -5707.91)" d="M 5925 6860 C 5651 6833 5417 6701 5306 6510 C 5244 6404 5220 6307 5220 6170 C 5220 6004 5268 5870 5367 5760 C 5481 5635 5589 5577 5915 5470 C 6129 5399 6183 5375 6240 5323 C 6277 5290 6280 5284 6280 5235 C 6280 5174 6257 5137 6203 5115 C 6114 5078 6016 5088 5956 5140 C 5920 5172 5908 5197 5890 5278 L 5878 5330 L 5543 5330 L 5208 5330 L 5215 5253 C 5231 5057 5293 4917 5417 4794 C 5568 4645 5773 4567 6051 4553 C 6430 4534 6749 4693 6881 4966 C 6929 5065 6950 5157 6950 5272 C 6950 5453 6902 5571 6776 5695 C 6677 5793 6576 5846 6300 5945 C 6069 6028 5939 6090 5915 6127 C 5894 6158 5892 6231 5911 6266 C 5940 6321 6053 6346 6127 6315 C 6195 6286 6227 6242 6239 6161 L 6245 6115 L 6585 6115 L 6925 6115 L 6922 6175 C 6917 6253 6896 6354 6870 6419 C 6789 6625 6578 6785 6310 6844 C 6227 6862 6029 6870 5925 6860 z" stroke-linecap="round" />
</g>
		<g transform="matrix(0.13 0 0 -0.13 567.37 -158.73)"  >
<path style="stroke: none; stroke-width: 1; stroke-dasharray: none; stroke-linecap: butt; stroke-dashoffset: 0; stroke-linejoin: miter; stroke-miterlimit: 4; fill: rgb(0,0,0); fill-rule: nonzero; opacity: 1;" vector-effect="non-scaling-stroke"  transform=" translate(-12457.34, -5708)" d="M 12305 6861 C 12085 6841 11886 6750 11755 6608 C 11647 6492 11597 6355 11597 6170 C 11597 5993 11644 5863 11748 5754 C 11872 5623 11968 5573 12315 5461 C 12617 5363 12699 5291 12644 5174 C 12619 5122 12563 5097 12469 5096 C 12403 5095 12389 5098 12353 5122 C 12307 5153 12273 5212 12264 5283 L 12257 5330 L 11922 5330 L 11587 5330 L 11593 5236 C 11614 4883 11881 4626 12291 4566 C 12736 4500 13114 4659 13261 4973 C 13369 5206 13344 5475 13199 5647 C 13099 5766 12998 5826 12745 5919 C 12308 6080 12270 6102 12270 6194 C 12270 6307 12398 6367 12516 6309 C 12568 6285 12597 6241 12612 6166 L 12624 6110 L 12962 6110 L 13300 6110 L 13300 6146 C 13300 6207 13279 6319 13254 6392 C 13159 6671 12875 6848 12500 6863 C 12437 6866 12349 6865 12305 6861 z" stroke-linecap="round" />
</g>
		<g transform="matrix(0.13 0 0 -0.13 809.87 -158.85)"  >
<path style="stroke: none; stroke-width: 1; stroke-dasharray: none; stroke-linecap: butt; stroke-dashoffset: 0; stroke-linejoin: miter; stroke-miterlimit: 4; fill: rgb(0,0,0); fill-rule: nonzero; opacity: 1;" vector-effect="non-scaling-stroke"  transform=" translate(-14276.08, -5708.94)" d="M 14125 6860 C 13830 6831 13583 6679 13480 6464 C 13397 6293 13401 6027 13487 5867 C 13523 5801 13626 5691 13697 5644 C 13774 5593 13896 5542 14125 5466 C 14418 5368 14480 5327 14480 5231 C 14480 5143 14419 5098 14295 5096 C 14176 5094 14118 5144 14089 5273 L 14077 5330 L 13743 5330 L 13408 5330 L 13416 5238 C 13442 4897 13679 4651 14055 4575 C 14168 4552 14349 4545 14451 4559 C 14795 4608 15028 4784 15122 5065 C 15142 5125 15145 5154 15144 5275 C 15144 5403 15142 5421 15117 5485 C 15062 5625 14961 5736 14817 5814 C 14772 5838 14665 5884 14580 5915 C 14238 6040 14141 6084 14113 6127 C 14090 6161 14092 6238 14115 6273 C 14155 6335 14283 6347 14361 6296 C 14404 6267 14427 6226 14439 6156 L 14446 6115 L 14785 6115 L 15125 6115 L 15122 6165 C 15107 6411 15009 6588 14815 6719 C 14649 6832 14386 6885 14125 6860 z" stroke-linecap="round" />
</g>
		<g transform="matrix(0.13 0 0 -0.13 -803.69 -158.26)"  >
<path style="stroke: none; stroke-width: 1; stroke-dasharray: none; stroke-linecap: butt; stroke-dashoffset: 0; stroke-linejoin: miter; stroke-miterlimit: 4; fill: rgb(0,0,0); fill-rule: nonzero; opacity: 1;" vector-effect="non-scaling-stroke"  transform=" translate(-2174.42, -5704.5)" d="M 1260 5704 L 1260 4569 L 1868 4573 C 2433 4576 2481 4578 2560 4597 C 2817 4657 2985 4795 3057 5003 C 3091 5102 3099 5268 3075 5360 C 3040 5493 2959 5616 2853 5692 L 2791 5737 L 2860 5799 C 2939 5869 2994 5957 3022 6059 C 3048 6153 3047 6306 3019 6396 C 2949 6625 2781 6763 2501 6820 C 2408 6839 2365 6840 1831 6840 L 1260 6840 L 1260 5704 z M 2311 6274 C 2330 6263 2355 6238 2368 6219 C 2388 6191 2391 6175 2388 6127 C 2383 6062 2362 6026 2309 5995 C 2278 5977 2257 5975 2090 5975 L 1905 5975 L 1902 6125 C 1901 6207 1902 6281 1905 6288 C 1909 6300 1941 6302 2094 6298 C 2253 6294 2282 6291 2311 6274 z M 2346 5439 C 2412 5406 2433 5374 2438 5297 C 2442 5214 2422 5174 2356 5141 C 2308 5116 2300 5116 2106 5115 L 1905 5115 L 1902 5280 C 1901 5370 1902 5451 1905 5458 C 1910 5470 1942 5472 2104 5468 C 2284 5463 2302 5461 2346 5439 z" stroke-linecap="round" />
</g>
		<g transform="matrix(0.13 0 0 -0.13 -540.68 -157.01)"  >
<path style="stroke: none; stroke-width: 1; stroke-dasharray: none; stroke-linecap: butt; stroke-dashoffset: 0; stroke-linejoin: miter; stroke-miterlimit: 4; fill: rgb(0,0,0); fill-rule: nonzero; opacity: 1;" vector-effect="non-scaling-stroke"  transform=" translate(-4147, -5695.12)" d="M 3193 6073 C 3197 5252 3196 5270 3248 5119 C 3306 4953 3429 4799 3585 4699 C 3855 4525 4271 4501 4587 4641 C 4788 4730 4979 4934 5046 5130 C 5105 5307 5105 5299 5105 6100 L 5105 6835 L 4785 6835 L 4465 6835 L 4460 6105 L 4455 5375 L 4432 5325 C 4402 5260 4357 5213 4295 5184 C 4228 5152 4066 5149 3997 5179 C 3935 5206 3886 5258 3858 5327 L 3835 5385 L 3832 6113 L 3829 6840 L 3509 6840 L 3189 6840 L 3193 6073 z" stroke-linecap="round" />
</g>
		<g transform="matrix(0.13 0 0 -0.13 -107.94 -158.66)"  >
<path style="stroke: none; stroke-width: 1; stroke-dasharray: none; stroke-linecap: butt; stroke-dashoffset: 0; stroke-linejoin: miter; stroke-miterlimit: 4; fill: rgb(0,0,0); fill-rule: nonzero; opacity: 1;" vector-effect="non-scaling-stroke"  transform=" translate(-7392.5, -5707.5)" d="M 7072 5708 L 7075 4575 L 7395 4575 L 7715 4575 L 7715 5705 L 7715 6835 L 7392 6838 L 7070 6840 L 7072 5708 z" stroke-linecap="round" />
</g>
		<g transform="matrix(0.13 0 0 -0.13 89.06 -158.33)"  >
<path style="stroke: none; stroke-width: 1; stroke-dasharray: none; stroke-linecap: butt; stroke-dashoffset: 0; stroke-linejoin: miter; stroke-miterlimit: 4; fill: rgb(0,0,0); fill-rule: nonzero; opacity: 1;" vector-effect="non-scaling-stroke"  transform=" translate(-8870, -5705)" d="M 7852 5708 L 7855 4575 L 8175 4575 L 8495 4575 L 8497 5149 C 8499 5465 8501 5728 8503 5733 C 8504 5738 8668 5497 8865 5196 C 9063 4895 9238 4631 9253 4609 L 9282 4570 L 9586 4570 L 9890 4570 L 9890 5705 L 9890 6840 L 9570 6840 L 9250 6840 L 9250 6253 C 9250 5741 9248 5668 9236 5680 C 9228 5688 9116 5855 8988 6050 C 8859 6245 8690 6503 8611 6623 L 8468 6840 L 8159 6840 L 7850 6840 L 7852 5708 z" stroke-linecap="round" />
</g>
		<g transform="matrix(0.13 0 0 -0.13 342.39 -158.33)"  >
<path style="stroke: none; stroke-width: 1; stroke-dasharray: none; stroke-linecap: butt; stroke-dashoffset: 0; stroke-linejoin: miter; stroke-miterlimit: 4; fill: rgb(0,0,0); fill-rule: nonzero; opacity: 1;" vector-effect="non-scaling-stroke"  transform=" translate(-10770, -5705)" d="M 10050 5705 L 10050 4570 L 10764 4570 L 11478 4570 L 11484 4593 C 11492 4622 11492 5058 11484 5087 L 11478 5110 L 11086 5112 L 10695 5115 L 10692 5288 L 10690 5460 L 11040 5460 L 11390 5460 L 11388 5723 L 11385 5985 L 11037 5988 L 10689 5990 L 10692 6143 L 10695 6295 L 11086 6298 L 11478 6300 L 11484 6323 C 11492 6352 11492 6804 11484 6824 C 11478 6838 11406 6840 10764 6840 L 10050 6840 L 10050 5705 z" stroke-linecap="round" />
</g>
		<g transform="matrix(0.13 0 0 -0.13 71.24 143.05)"  >
<path style="stroke: none; stroke-width: 1; stroke-dasharray: none; stroke-linecap: butt; stroke-dashoffset: 0; stroke-linejoin: miter; stroke-miterlimit: 4; fill: rgb(0,0,0); fill-rule: nonzero; opacity: 1;" vector-effect="non-scaling-stroke"  transform=" translate(-8736.42, -3444.66)" d="M 8645 4518 C 8540 4509 8485 4498 8375 4463 C 8032 4353 7763 4055 7681 3695 C 7651 3565 7651 3339 7680 3200 C 7721 3006 7833 2807 7980 2667 C 8052 2597 8167 2512 8235 2478 C 8286 2452 8462 2392 8525 2380 C 8612 2362 8889 2365 8970 2384 C 9192 2437 9356 2526 9505 2675 C 9734 2904 9838 3204 9810 3550 C 9778 3927 9565 4247 9233 4413 C 9077 4491 8840 4534 8645 4518 z M 8865 3945 C 9084 3888 9201 3714 9200 3447 C 9199 3328 9183 3251 9140 3164 C 9065 3012 8925 2930 8737 2930 C 8545 2930 8410 3011 8329 3175 C 8297 3241 8270 3363 8270 3445 C 8270 3528 8299 3658 8331 3723 C 8390 3839 8501 3926 8620 3949 C 8692 3963 8801 3961 8865 3945 z" stroke-linecap="round" />
</g>
		<g transform="matrix(0.13 0 0 -0.13 -218.94 143.3)"  >
<path style="stroke: none; stroke-width: 1; stroke-dasharray: none; stroke-linecap: butt; stroke-dashoffset: 0; stroke-linejoin: miter; stroke-miterlimit: 4; fill: rgb(0,0,0); fill-rule: nonzero; opacity: 1;" vector-effect="non-scaling-stroke"  transform=" translate(-6560, -3442.83)" d="M 6475 4514 C 6231 4496 5986 4387 5820 4220 C 5624 4025 5520 3754 5520 3440 C 5520 3129 5622 2867 5821 2670 C 6029 2464 6271 2370 6593 2370 C 6852 2370 7100 2459 7282 2617 C 7414 2732 7508 2882 7569 3073 C 7586 3126 7600 3172 7600 3175 C 7600 3178 7454 3180 7276 3180 L 6951 3180 L 6928 3133 C 6811 2898 6453 2859 6266 3061 C 6202 3130 6164 3208 6145 3309 C 6125 3413 6126 3510 6150 3604 C 6206 3827 6357 3950 6576 3950 C 6729 3950 6829 3897 6912 3773 L 6961 3700 L 7275 3700 C 7468 3700 7591 3704 7595 3710 C 7605 3726 7531 3931 7484 4014 C 7344 4264 7110 4432 6820 4493 C 6743 4509 6563 4520 6475 4514 z" stroke-linecap="round" />
</g>
		<g transform="matrix(0.13 0 0 -0.13 -660.48 143.88)"  >
<path style="stroke: none; stroke-width: 1; stroke-dasharray: none; stroke-linecap: butt; stroke-dashoffset: 0; stroke-linejoin: miter; stroke-miterlimit: 4; fill: rgb(0,0,0); fill-rule: nonzero; opacity: 1;" vector-effect="non-scaling-stroke"  transform=" translate(-3248.48, -3438.45)" d="M 2400 4497 C 2397 4494 2396 4016 2398 3435 L 2400 2378 L 2963 2382 C 3503 2386 3528 2387 3615 2409 C 3929 2486 4100 2691 4100 2988 C 4100 3097 4072 3195 4016 3282 C 3983 3335 3883 3436 3845 3457 C 3826 3468 3829 3472 3886 3524 C 4008 3634 4052 3738 4053 3915 C 4053 4088 4015 4186 3901 4303 C 3834 4372 3776 4411 3695 4439 C 3538 4493 3543 4492 2955 4497 C 2653 4500 2403 4499 2400 4497 z M 3363 3967 C 3411 3946 3440 3898 3440 3837 C 3440 3780 3421 3740 3383 3714 C 3359 3697 3332 3695 3178 3692 L 3000 3688 L 3000 3833 C 3000 3940 3003 3980 3013 3984 C 3039 3996 3326 3982 3363 3967 z M 3399 3192 C 3459 3169 3483 3134 3488 3063 C 3491 3015 3488 2999 3468 2970 C 3427 2909 3398 2901 3200 2900 C 3104 2899 3019 2899 3013 2899 C 3003 2900 3000 2938 3000 3055 L 3000 3210 L 3178 3209 C 3319 3209 3364 3206 3399 3192 z" stroke-linecap="round" />
</g>
		<g transform="matrix(0.13 0 0 -0.13 -448.88 143.79)"  >
<path style="stroke: none; stroke-width: 1; stroke-dasharray: none; stroke-linecap: butt; stroke-dashoffset: 0; stroke-linejoin: miter; stroke-miterlimit: 4; fill: rgb(0,0,0); fill-rule: nonzero; opacity: 1;" vector-effect="non-scaling-stroke"  transform=" translate(-4835.5, -3439.13)" d="M 4170 4493 C 4170 4486 4170 2410 4170 2388 C 4170 2383 4469 2380 4835 2380 L 5500 2380 L 5500 2635 L 5500 2890 L 5135 2890 L 4770 2890 L 4770 3050 L 4770 3210 L 5095 3210 L 5420 3210 L 5420 3455 L 5420 3700 L 5111 3700 C 4941 3700 4795 3703 4786 3706 C 4772 3711 4770 3733 4770 3845 C 4770 3960 4772 3979 4787 3984 C 4796 3988 4960 3990 5152 3990 L 5500 3989 L 5501 4242 L 5501 4495 L 4836 4498 C 4470 4499 4170 4497 4170 4493 z" stroke-linecap="round" />
</g>
		<g transform="matrix(0.13 0 0 -0.13 388.74 143.67)"  >
<path style="stroke: none; stroke-width: 1; stroke-dasharray: none; stroke-linecap: butt; stroke-dashoffset: 0; stroke-linejoin: miter; stroke-miterlimit: 4; fill: rgb(0,0,0); fill-rule: nonzero; opacity: 1;" vector-effect="non-scaling-stroke"  transform=" translate(-11117.67, -3440)" d="M 9937 4493 C 9927 4484 9929 2407 9938 2392 C 9945 2383 10012 2380 10241 2382 L 10535 2385 L 10540 2839 L 10545 3293 L 10715 2839 L 10885 2385 L 11123 2385 L 11362 2385 L 11402 2490 C 11466 2660 11610 3047 11647 3150 C 11710 3326 11710 3328 11710 2827 L 11710 2380 L 12008 2382 L 12305 2385 L 12305 3440 L 12305 4495 L 11971 4495 L 11638 4495 L 11388 3870 C 11251 3526 11134 3241 11130 3236 C 11124 3230 11116 3239 11110 3256 C 11104 3272 11036 3440 10959 3630 C 10882 3820 10774 4088 10718 4225 C 10662 4363 10612 4481 10607 4488 C 10600 4497 10520 4500 10270 4500 C 10091 4500 9940 4497 9937 4493 z" stroke-linecap="round" />
</g>
		<g transform="matrix(0.13 0 0 -0.13 659.12 143.67)"  >
<path style="stroke: none; stroke-width: 1; stroke-dasharray: none; stroke-linecap: butt; stroke-dashoffset: 0; stroke-linejoin: miter; stroke-miterlimit: 4; fill: rgb(0,0,0); fill-rule: nonzero; opacity: 1;" vector-effect="non-scaling-stroke"  transform=" translate(-13145.5, -3440)" d="M 12480 3440 L 12480 2380 L 13145 2380 C 13582 2380 13810 2383 13810 2390 C 13810 2396 13810 2506 13810 2635 C 13810 2764 13810 2875 13810 2880 C 13810 2886 13682 2890 13445 2890 L 13080 2890 L 13080 3050 L 13080 3210 L 13405 3210 L 13730 3210 L 13730 3455 L 13730 3700 L 13421 3700 C 13251 3700 13105 3703 13096 3706 C 13082 3711 13080 3733 13080 3845 C 13080 3960 13082 3979 13097 3984 C 13106 3988 13270 3990 13462 3990 L 13811 3989 L 13811 4242 L 13811 4495 L 13146 4498 L 12480 4500 L 12480 3440 z" stroke-linecap="round" />
</g>
		<g transform="matrix(0.13 0 0 -0.13 -481 439.92)"  >
<path style="stroke: none; stroke-width: 1; stroke-dasharray: none; stroke-linecap: butt; stroke-dashoffset: 0; stroke-linejoin: miter; stroke-miterlimit: 4; fill: rgb(0,0,0); fill-rule: nonzero; opacity: 1;" vector-effect="non-scaling-stroke"  transform=" translate(-4594.56, -1218.18)" d="M 4415 2308 C 3978 2218 3691 1971 3571 1580 C 3501 1354 3504 1064 3578 834 C 3660 584 3856 358 4098 236 C 4292 138 4591 96 4820 135 C 5155 191 5435 393 5594 692 C 5667 830 5671 855 5668 1145 L 5665 1405 L 5065 1405 L 4465 1405 L 4465 1165 L 4465 925 L 4763 922 C 4926 921 5060 916 5060 912 C 5060 896 4991 807 4957 779 C 4876 712 4782 681 4662 680 C 4403 679 4225 811 4165 1046 C 4146 1122 4146 1304 4164 1380 C 4207 1555 4316 1675 4475 1720 C 4654 1771 4878 1712 4951 1594 C 4993 1526 4971 1530 5314 1530 C 5556 1530 5630 1533 5638 1543 C 5653 1560 5594 1736 5541 1832 C 5412 2067 5166 2242 4890 2296 C 4789 2315 4488 2323 4415 2308 z" stroke-linecap="round" />
</g>
		<g transform="matrix(0.13 0 0 -0.13 18.39 440.01)"  >
<path style="stroke: none; stroke-width: 1; stroke-dasharray: none; stroke-linecap: butt; stroke-dashoffset: 0; stroke-linejoin: miter; stroke-miterlimit: 4; fill: rgb(0,0,0); fill-rule: nonzero; opacity: 1;" vector-effect="non-scaling-stroke"  transform=" translate(-8340, -1217.5)" d="M 7652 1218 L 7655 135 L 8340 135 L 9025 135 L 9025 390 L 9025 645 L 8650 650 L 8275 655 L 8272 817 L 8270 980 L 8602 982 L 8935 985 L 8935 1235 L 8935 1485 L 8603 1488 L 8270 1490 L 8270 1635 L 8270 1780 L 8644 1780 C 8976 1780 9019 1782 9024 1796 C 9027 1805 9030 1922 9030 2056 L 9030 2300 L 8340 2300 L 7650 2300 L 7652 1218 z" stroke-linecap="round" />
</g>
		<g transform="matrix(0.13 0 0 -0.13 477.72 439.67)"  >
<path style="stroke: none; stroke-width: 1; stroke-dasharray: none; stroke-linecap: butt; stroke-dashoffset: 0; stroke-linejoin: miter; stroke-miterlimit: 4; fill: rgb(0,0,0); fill-rule: nonzero; opacity: 1;" vector-effect="non-scaling-stroke"  transform=" translate(-11785, -1220)" d="M 10930 2046 C 10930 1824 10932 1791 10946 1786 C 10955 1783 11076 1780 11215 1780 C 11438 1780 11469 1778 11474 1764 C 11477 1755 11480 1387 11480 946 L 11480 145 L 11785 142 L 12090 140 L 12090 960 L 12090 1780 L 12353 1780 C 12544 1780 12619 1783 12628 1792 C 12637 1801 12640 1872 12640 2052 L 12640 2300 L 11785 2300 L 10930 2300 L 10930 2046 z" stroke-linecap="round" />
</g>
		<g transform="matrix(0.13 0 0 -0.13 -204.48 442.41)"  >
<path style="stroke: none; stroke-width: 1; stroke-dasharray: none; stroke-linecap: butt; stroke-dashoffset: 0; stroke-linejoin: miter; stroke-miterlimit: 4; fill: rgb(0,0,0); fill-rule: nonzero; opacity: 1;" vector-effect="non-scaling-stroke"  transform=" translate(-6668.51, -1199.5)" d="M 5792 1200 L 5795 119 L 6100 119 L 6405 119 L 6408 500 C 6410 802 6413 880 6423 880 C 6434 880 6554 669 6804 213 L 6855 120 L 7193 120 C 7378 120 7533 120 7537 119 C 7541 119 7546 122 7547 127 C 7549 131 7444 317 7315 539 C 7186 761 7080 946 7080 950 C 7080 953 7108 970 7142 986 C 7305 1062 7442 1238 7481 1420 C 7489 1457 7495 1534 7494 1600 C 7493 1695 7488 1729 7467 1795 C 7384 2047 7194 2205 6907 2261 C 6819 2278 6760 2280 6300 2280 L 5790 2280 L 5792 1200 z M 6777 1727 C 6832 1698 6862 1648 6867 1576 C 6873 1501 6860 1453 6821 1416 C 6778 1375 6705 1360 6548 1360 L 6410 1360 L 6410 1556 L 6410 1752 L 6578 1748 C 6712 1745 6751 1741 6777 1727 z" stroke-linecap="round" />
</g>
		<g transform="matrix(0.13 0 0 -0.13 272.99 442.34)"  >
<path style="stroke: none; stroke-width: 1; stroke-dasharray: none; stroke-linecap: butt; stroke-dashoffset: 0; stroke-linejoin: miter; stroke-miterlimit: 4; fill: rgb(0,0,0); fill-rule: nonzero; opacity: 1;" vector-effect="non-scaling-stroke"  transform=" translate(-10249.5, -1200)" d="M 9843 2083 C 9804 1974 9699 1685 9610 1440 C 9310 613 9140 139 9140 129 C 9140 123 9261 121 9463 122 L 9785 125 L 9840 285 C 9870 373 9898 453 9902 463 C 9909 479 9935 480 10237 480 C 10417 480 10570 476 10576 472 C 10582 468 10613 387 10645 293 L 10703 120 L 11031 120 L 11359 120 L 11316 243 C 11292 310 11224 498 11165 660 C 11106 822 11003 1108 10935 1295 C 10867 1482 10764 1768 10705 1930 C 10646 2092 10593 2237 10588 2253 L 10578 2280 L 10246 2280 L 9914 2280 L 9843 2083 z M 10330 1230 C 10374 1101 10410 992 10410 988 C 10410 983 10336 980 10245 980 C 10154 980 10080 983 10080 988 C 10080 994 10218 1414 10235 1459 C 10238 1467 10242 1471 10245 1468 C 10247 1466 10285 1359 10330 1230 z" stroke-linecap="round" />
</g>
</g>
</g>
</svg>