<?xml version="1.0" standalone="no"?>
<!DOCTYPE svg PUBLIC "-//W3C//DTD SVG 20010904//EN"
 "http://www.w3.org/TR/2001/REC-SVG-20010904/DTD/svg10.dtd">
<svg version="1.0" xmlns="http://www.w3.org/2000/svg"
 width="1328.000000pt" height="223.000000pt" viewBox="0 0 1328.000000 223.000000"
 preserveAspectRatio="xMidYMid meet">
<metadata>
Created by potrace 1.16, written by Peter Selinger 2001-2019
</metadata>
<g transform="translate(0.000000,223.000000) scale(0.100000,-0.100000)"
fill="#FFFFFF" stroke="none">
<path d="M11357 2051 c-20 -6 -26 -24 -16 -43 9 -17 36 -18 449 -18 287 0 440
-3 440 -10 0 -5 -20 -10 -43 -10 -54 0 -62 -8 -136 -141 -86 -155 -51 -144
-449 -143 -245 0 -343 4 -360 13 -21 11 -54 54 -95 125 -31 53 -74 86 -111 86
-58 0 -62 -21 -25 -115 4 -11 21 -59 37 -106 27 -80 28 -90 19 -174 -7 -70 -6
-89 5 -96 27 -18 55 -8 98 36 25 25 53 45 66 45 25 0 273 -42 439 -75 101 -19
147 -36 289 -100 92 -42 195 -82 227 -88 57 -10 60 -12 93 -68 l35 -58 -102
-3 c-88 -3 -102 -5 -105 -20 -3 -17 20 -18 380 -18 364 0 385 1 416 20 17 11
32 27 32 35 0 18 1 18 -43 0 -59 -24 -71 -20 -111 41 -20 31 -33 60 -30 65 3
5 29 9 57 9 68 0 205 27 234 45 52 34 34 116 -36 162 -30 21 -46 23 -149 23
-112 0 -115 1 -139 28 -14 15 -47 65 -74 112 l-48 85 90 9 c60 5 89 12 89 21
0 6 -33 27 -72 45 -40 18 -113 51 -163 73 -66 30 -100 52 -128 84 -35 38 -43
43 -83 43 -24 0 -44 5 -44 10 0 7 155 10 444 10 280 0 447 4 451 10 3 5 1 19
-6 31 -11 22 -13 22 -203 15 -105 -4 -303 -13 -441 -21 -154 -8 -251 -10 -253
-4 -6 14 -42 11 -42 -5 0 -11 -9 -12 -42 -6 -60 11 -818 48 -841 41z m1106
-382 c19 -9 107 -135 107 -154 0 -12 -207 -4 -222 8 -13 10 -88 131 -88 142 0
16 170 19 203 4z m240 -476 c13 -21 29 -48 36 -60 l12 -23 -180 0 -180 0 -36
52 c-19 29 -35 56 -35 60 0 5 81 8 180 8 l180 0 23 -37z"/>
<path d="M3822 1155 c-257 -56 -424 -335 -371 -621 31 -166 135 -307 279 -377
116 -56 303 -49 410 16 141 85 229 224 251 396 12 102 -1 198 -43 304 -27 67
-44 93 -98 148 -75 76 -163 124 -255 139 -75 12 -95 12 -173 -5z m204 -213
c114 -59 180 -216 154 -364 -31 -169 -121 -258 -260 -258 -72 0 -119 18 -171
67 -93 87 -124 262 -71 401 58 151 217 221 348 154z"/>
<path d="M10371 1159 c-135 -23 -275 -132 -336 -263 -45 -96 -54 -141 -55
-256 0 -137 35 -245 110 -341 54 -68 89 -96 169 -137 74 -37 76 -37 196 -37
116 0 123 1 189 34 121 59 205 155 252 286 25 70 28 94 29 195 0 100 -4 125
-28 196 -33 97 -72 154 -147 218 -69 59 -139 92 -221 105 -72 12 -83 12 -158
0z m193 -219 c197 -95 208 -458 17 -590 -32 -22 -46 -25 -128 -25 -86 0 -94 2
-134 30 -84 59 -131 164 -131 290 1 241 187 387 376 295z"/>
<path d="M80 641 l0 -511 208 0 c226 0 273 7 363 56 63 35 118 88 169 166 63
97 85 264 55 422 -26 133 -91 231 -205 307 -82 54 -124 62 -367 67 l-223 4 0
-511z m447 294 c57 -28 100 -76 134 -150 14 -31 19 -64 19 -146 0 -98 -2 -110
-31 -167 -57 -116 -127 -152 -289 -152 l-80 0 0 326 0 327 96 -6 c76 -4 107
-11 151 -32z"/>
<path d="M1005 1138 c-3 -7 -4 -236 -3 -508 l3 -495 103 -3 102 -3 0 216 0
215 185 0 185 0 0 -215 0 -215 100 0 100 0 0 510 0 510 -100 0 -100 0 0 -205
0 -205 -185 0 -185 0 0 205 0 205 -100 0 c-71 0 -102 -4 -105 -12z"/>
<path d="M1940 640 l0 -510 100 0 100 0 0 510 0 510 -100 0 -100 0 0 -510z"/>
<path d="M2300 640 l0 -510 250 0 250 0 0 90 0 90 -150 0 -150 0 0 420 0 420
-100 0 -100 0 0 -510z"/>
<path d="M2890 640 l0 -510 250 0 250 0 0 90 0 90 -145 0 -145 0 0 420 0 420
-105 0 -105 0 0 -510z"/>
<path d="M4510 640 l0 -510 100 0 100 0 0 332 c0 328 0 332 18 298 38 -72 94
-166 108 -181 8 -8 14 -19 14 -23 0 -4 14 -27 30 -51 17 -24 30 -47 30 -52 0
-5 16 -32 35 -60 19 -29 35 -55 35 -58 0 -4 14 -26 30 -50 17 -24 30 -46 30
-49 0 -3 14 -28 31 -56 l31 -50 99 0 99 0 0 510 0 510 -100 0 -100 0 0 -322
c0 -322 0 -323 -20 -298 -11 14 -26 39 -34 55 -9 17 -29 50 -46 75 -16 25 -30
49 -30 53 0 5 -13 27 -29 50 -15 23 -47 76 -71 117 -24 41 -53 91 -65 110 -12
19 -39 63 -60 98 l-38 62 -98 0 -99 0 0 -510z"/>
<path d="M6027 1108 c-8 -24 -32 -97 -52 -163 -21 -66 -50 -156 -65 -200 -15
-44 -44 -132 -64 -195 -20 -63 -57 -177 -81 -253 -25 -76 -45 -145 -45 -153 0
-11 21 -14 105 -14 l105 0 6 27 c3 16 16 60 28 98 l23 70 169 3 169 2 30 -97
31 -98 108 -3 c92 -2 108 0 103 12 -3 8 -11 34 -17 58 -6 24 -22 72 -34 108
-13 36 -40 119 -61 185 -58 183 -165 512 -190 585 l-23 65 -115 3 -115 3 -15
-43z m201 -463 c17 -55 34 -110 37 -122 6 -23 6 -23 -108 -23 l-114 0 17 63
c10 34 29 96 43 137 14 41 31 97 38 124 l12 48 22 -63 c12 -35 36 -109 53
-164z"/>
<path d="M6636 1123 c4 -15 18 -59 31 -98 14 -38 33 -97 43 -130 9 -33 27 -85
39 -115 11 -30 21 -61 21 -68 0 -7 15 -54 33 -105 19 -51 62 -179 97 -285 l63
-192 123 0 122 0 10 42 c9 40 32 109 102 313 69 200 83 242 91 275 4 19 35
114 68 210 34 96 61 176 61 178 0 1 -49 2 -109 2 l-109 0 -16 -52 c-9 -29 -33
-105 -52 -168 -20 -63 -49 -158 -65 -210 -16 -52 -46 -147 -67 -211 l-38 -117
-27 82 c-15 44 -69 214 -120 376 l-93 295 -107 3 -108 3 7 -28z"/>
<path d="M7620 640 l0 -510 100 0 100 0 0 510 0 510 -100 0 -100 0 0 -510z"/>
<path d="M8247 1128 c-2 -13 -16 -57 -31 -98 -27 -77 -128 -387 -193 -590 -20
-63 -49 -150 -65 -193 -43 -122 -46 -117 76 -117 l104 0 20 62 c11 35 24 79
29 98 l9 35 171 3 172 2 17 -57 c9 -32 22 -76 29 -98 l12 -40 106 -3 c72 -2
107 1 107 8 0 6 -25 86 -55 178 -30 92 -71 219 -92 282 -20 63 -49 151 -63
195 -14 44 -42 130 -62 190 -20 61 -39 122 -42 138 l-6 27 -119 0 c-115 0
-119 -1 -124 -22z m162 -388 c35 -104 71 -224 71 -233 0 -4 -52 -7 -116 -7
-97 0 -115 2 -111 14 13 34 56 165 71 219 10 31 24 74 33 95 13 29 17 33 20
17 2 -11 16 -58 32 -105z"/>
<path d="M8870 1060 l0 -90 115 0 115 0 2 -417 3 -418 103 -3 102 -3 0 421 0
420 120 0 120 0 0 90 0 90 -340 0 -340 0 0 -90z"/>
<path d="M9660 640 l0 -510 100 0 100 0 0 510 0 510 -100 0 -100 0 0 -510z"/>
<path d="M11040 640 l0 -511 103 3 102 3 5 320 c3 205 8 313 14 300 5 -11 31
-56 58 -100 27 -44 54 -89 61 -100 6 -11 26 -44 44 -72 18 -29 33 -57 33 -61
0 -5 14 -28 30 -50 17 -23 30 -44 30 -48 0 -3 14 -25 30 -49 17 -24 34 -52 38
-62 4 -10 16 -33 27 -51 l19 -32 103 0 103 0 0 510 0 510 -100 0 -100 0 0
-327 0 -328 -25 30 c-13 17 -27 39 -31 50 -4 11 -20 39 -35 62 -16 23 -29 46
-29 51 0 5 -13 27 -28 48 -27 38 -68 105 -107 175 -11 20 -47 82 -80 137 l-60
101 -102 1 -103 0 0 -510z"/>
</g>
</svg>
