<?xml version="1.0" standalone="no"?>
<!DOCTYPE svg PUBLIC "-//W3C//DTD SVG 20010904//EN"
 "http://www.w3.org/TR/2001/REC-SVG-20010904/DTD/svg10.dtd">
<svg version="1.0" xmlns="http://www.w3.org/2000/svg"
 width="2880.000000pt" height="370.000000pt" viewBox="0 0 2880.000000 370.000000"
 preserveAspectRatio="xMidYMid meet">

<g transform="translate(0.000000,370.000000) scale(0.100000,-0.100000)"
fill="#000000" stroke="none">
<path d="M2440 3585 c-42 -8 -116 -28 -165 -45 -478 -167 -883 -700 -944
-1243 -11 -93 -3 -137 23 -137 23 0 27 14 37 128 31 365 217 714 512 960 246
206 468 294 737 294 139 0 235 -22 374 -85 l71 -33 -95 -23 c-474 -115 -884
-423 -1080 -810 -69 -138 -120 -336 -120 -465 1 -220 118 -419 300 -508 100
-49 175 -62 308 -55 223 12 442 112 627 289 253 240 424 638 425 989 0 143
-51 298 -157 472 -19 32 -34 59 -32 61 2 2 67 11 144 20 155 19 273 13 451
-24 191 -39 367 -120 496 -226 l27 -22 -61 -48 c-120 -96 -363 -382 -505 -594
-88 -133 -235 -376 -443 -735 -112 -192 -230 -393 -263 -445 -171 -271 -338
-446 -492 -516 -93 -43 -163 -43 -400 0 -262 47 -379 60 -484 54 -141 -8 -185
-46 -144 -125 52 -100 207 -120 672 -87 194 14 254 14 424 4 580 -37 1017 74
1417 360 345 247 588 614 667 1007 22 108 25 402 5 508 -31 169 -97 329 -211
510 l-50 80 52 53 c29 29 106 91 172 138 130 90 188 141 180 154 -14 23 -266
-100 -390 -191 l-94 -69 -93 56 c-183 112 -380 194 -548 228 -144 29 -225 30
-427 6 l-190 -24 -94 47 c-153 75 -248 98 -419 103 -99 2 -169 -1 -220 -11z
m790 -296 c117 -198 160 -327 160 -485 0 -363 -201 -776 -479 -984 -166 -124
-440 -215 -594 -196 -117 13 -232 100 -285 214 -62 132 -18 399 104 638 202
394 548 703 949 850 50 18 93 33 96 34 4 0 26 -32 49 -71z m1323 -382 c60
-106 109 -225 144 -352 24 -89 27 -116 26 -245 0 -107 -6 -172 -22 -249 -146
-695 -651 -1198 -1337 -1331 -230 -44 -440 -48 -702 -13 l-43 6 108 56 c185
96 332 209 498 383 231 240 387 471 755 1113 215 375 354 600 436 706 l47 62
21 -26 c12 -15 42 -64 69 -110z"/>
<path d="M19475 3471 c-453 -196 -781 -442 -1332 -999 -156 -157 -283 -279
-283 -272 0 28 -84 154 -148 222 -126 133 -333 262 -487 303 -225 59 -464 5
-607 -138 -105 -105 -154 -223 -179 -427 -34 -285 101 -586 386 -858 l105
-101 -75 -61 c-367 -300 -832 -469 -1292 -470 -531 -1 -893 193 -980 523 -22
84 -22 243 1 326 35 130 114 258 231 374 207 208 532 332 814 313 279 -19 490
-129 563 -293 44 -100 30 -299 -30 -427 -104 -220 -368 -348 -752 -364 l-134
-5 79 -24 c70 -22 93 -24 185 -19 196 10 396 79 523 181 148 118 237 315 237
526 0 274 -169 466 -495 565 -84 26 -102 28 -280 28 -174 0 -198 -2 -286 -26
-487 -132 -802 -520 -776 -953 14 -220 100 -402 248 -523 193 -158 428 -238
754 -257 194 -12 463 20 644 75 283 87 589 245 814 417 l60 46 164 -82 c183
-91 352 -152 506 -182 55 -11 102 -21 104 -22 1 -2 -20 -56 -47 -121 -28 -64
-50 -120 -50 -124 0 -4 66 0 148 10 81 9 153 17 159 18 7 0 35 44 62 98 l50
99 86 12 c149 21 328 96 426 178 35 30 89 109 89 130 0 24 -46 13 -76 -18 -83
-88 -227 -173 -349 -204 -55 -14 -145 -21 -145 -11 0 3 30 76 66 163 317 766
768 1543 1324 2283 98 130 104 140 93 139 -4 0 -57 -22 -118 -48z m-243 -268
c-419 -445 -856 -1092 -1197 -1772 -36 -73 -68 -131 -71 -128 -2 2 1 37 7 78
26 168 -5 565 -56 708 l-13 38 100 114 c338 386 768 761 1103 961 82 49 228
128 238 128 5 0 -45 -57 -111 -127z m-1932 -598 c189 -50 381 -208 485 -398
l38 -68 -25 -27 c-227 -251 -706 -767 -761 -821 l-46 -44 -48 36 c-208 153
-346 414 -360 682 -4 84 -2 126 11 175 55 221 229 412 423 465 65 18 216 18
283 0z m589 -660 c62 -319 49 -544 -50 -851 -28 -87 -53 -160 -54 -162 -6 -6
-179 29 -268 54 -49 14 -128 42 -175 62 -85 37 -277 145 -288 163 -3 5 72 91
167 192 95 100 276 291 403 425 126 133 232 239 236 235 4 -4 17 -57 29 -118z"/>
<path d="M6036 2867 c-462 -822 -681 -1146 -1084 -1607 -79 -90 -98 -117 -89
-128 11 -14 71 42 301 288 54 58 92 93 83 79 -9 -15 -126 -206 -260 -425 -134
-220 -249 -409 -256 -421 l-12 -23 109 0 108 0 50 67 c119 164 412 508 583
685 184 191 369 329 420 313 60 -19 27 -84 -165 -328 -200 -256 -257 -386
-234 -535 19 -119 58 -178 136 -208 36 -13 49 -14 81 -4 116 37 318 212 548
475 120 137 331 369 350 385 17 14 -13 -38 -148 -249 -132 -208 -174 -338
-143 -442 40 -139 136 -201 257 -166 116 34 331 208 495 399 55 64 94 102 105
101 19 -3 103 89 322 350 29 36 -15 -50 -106 -203 -153 -257 -193 -372 -168
-483 22 -101 81 -160 170 -172 115 -16 194 36 461 304 127 127 212 206 224
206 17 0 162 158 313 340 l24 30 -20 -42 c-12 -24 -61 -110 -110 -193 -49 -82
-106 -189 -127 -238 -33 -76 -38 -97 -38 -167 -1 -101 27 -165 92 -209 37 -26
51 -30 110 -30 49 0 78 6 109 22 73 38 187 138 360 316 92 95 178 176 190 180
12 4 34 21 49 39 l27 32 -6 -30 c-25 -126 -30 -186 -19 -269 18 -137 67 -227
145 -268 33 -17 60 -22 128 -22 83 -1 90 1 172 43 82 41 232 156 306 235 35
36 36 36 115 36 93 0 165 17 244 57 63 31 170 126 203 179 20 33 20 64 0 64
-5 0 -47 -38 -93 -83 -97 -98 -202 -157 -292 -165 -91 -7 -94 2 -32 91 105
151 158 289 157 408 -1 117 -29 181 -102 235 -44 33 -90 44 -176 44 -135 0
-290 -68 -472 -208 -85 -65 -277 -254 -323 -319 -17 -24 -36 -43 -42 -43 -5 0
-77 -67 -160 -148 -237 -233 -414 -372 -473 -372 -63 0 -103 48 -88 107 28
112 293 554 790 1318 174 267 540 845 609 963 6 9 -19 12 -112 12 l-119 0
-134 -217 c-370 -604 -582 -914 -875 -1278 -153 -191 -237 -282 -459 -496
-227 -220 -314 -296 -413 -361 -88 -57 -129 -62 -169 -22 -21 21 -25 32 -20
65 13 101 237 479 750 1269 206 317 537 839 636 1003 l23 37 -120 0 -119 0
-78 -127 c-589 -961 -949 -1449 -1321 -1793 -27 -25 -96 -97 -153 -160 -117
-129 -226 -229 -287 -266 -42 -25 -146 -64 -171 -64 -19 0 -53 59 -53 92 0 35
68 165 168 320 43 68 156 243 251 391 94 147 174 274 177 282 5 13 -13 15
-123 15 l-130 0 -105 -107 c-134 -138 -284 -302 -349 -384 -28 -35 -61 -70
-73 -78 -11 -8 -68 -70 -126 -138 -215 -255 -413 -408 -485 -375 -73 34 -21
189 131 387 277 362 329 541 190 663 -54 47 -99 46 -201 -3 -89 -43 -232 -171
-416 -371 -75 -82 -147 -158 -160 -169 l-23 -20 15 25 c15 24 144 244 773
1320 153 261 291 496 307 523 l29 47 -123 0 -122 0 -119 -213z m3944 -1182
c35 -18 73 -67 89 -114 51 -153 -80 -447 -303 -679 -136 -142 -254 -212 -355
-212 -43 0 -53 4 -75 31 -34 40 -40 67 -33 148 17 200 174 498 362 687 132
134 236 180 315 139z"/>
<path d="M7335 2536 c-59 -26 -115 -110 -115 -171 0 -61 55 -115 118 -115 66
0 152 101 152 179 0 47 -27 91 -65 107 -42 17 -51 17 -90 0z"/>
<path d="M21335 2536 c-59 -26 -115 -110 -115 -171 0 -61 55 -115 118 -115 66
0 152 101 152 179 0 47 -27 91 -65 107 -42 17 -51 17 -90 0z"/>
<path d="M24744 2539 c-56 -16 -124 -112 -124 -174 0 -61 55 -115 118 -115 16
0 47 13 71 31 99 71 108 216 16 255 -38 16 -38 16 -81 3z"/>
<path d="M23888 2530 c-17 -4 -54 -57 -143 -203 l-120 -196 -101 -1 c-98 0
-101 -1 -129 -30 l-29 -30 107 0 c59 0 107 -2 107 -5 0 -20 -195 -288 -305
-420 -169 -204 -401 -454 -421 -454 -13 -1 -54 -39 -113 -106 -144 -162 -339
-335 -427 -379 -60 -30 -96 -33 -119 -9 -45 44 28 198 267 563 214 326 308
476 308 489 0 7 -44 11 -124 11 l-123 0 -83 -125 c-46 -69 -85 -125 -87 -125
-2 0 -1 16 3 35 10 55 -4 103 -42 145 -45 50 -89 64 -189 63 -134 -1 -294 -67
-469 -191 -92 -66 -261 -225 -326 -307 -25 -30 -55 -58 -67 -61 -12 -3 -59
-47 -105 -97 -46 -51 -110 -121 -142 -157 -77 -84 -190 -185 -242 -216 -42
-25 -146 -64 -171 -64 -19 0 -53 59 -53 92 0 35 68 165 168 320 43 68 156 243
251 391 94 147 174 274 177 282 5 13 -13 15 -123 15 l-130 0 -105 -107 c-150
-154 -283 -301 -385 -428 -96 -120 -168 -178 -271 -220 -62 -25 -146 -33 -157
-16 -3 6 32 60 79 121 139 184 246 415 246 532 0 60 -11 83 -50 103 -50 26
-95 19 -133 -19 -33 -33 -34 -36 -40 -137 -15 -229 -105 -455 -252 -632 -168
-203 -462 -341 -559 -264 -57 46 -31 124 121 364 194 307 225 377 227 503 1
89 -16 127 -75 170 -108 78 -220 34 -431 -169 -147 -140 -358 -390 -358 -423
0 -4 9 -8 19 -8 13 0 81 68 189 188 200 221 270 288 354 338 106 62 158 56
158 -18 0 -40 -27 -90 -142 -261 -183 -274 -236 -398 -225 -528 12 -146 85
-229 199 -229 155 1 329 83 534 252 l71 58 85 0 c139 0 250 44 344 136 21 21
78 86 125 144 48 58 126 146 173 195 l87 90 -52 -85 c-29 -47 -79 -127 -112
-179 -132 -208 -174 -338 -143 -442 40 -139 136 -201 257 -166 116 34 332 208
494 398 48 57 95 104 103 105 8 2 30 18 49 36 27 26 34 29 30 13 -30 -103 -34
-189 -12 -309 35 -195 123 -274 275 -246 119 21 255 115 375 260 32 40 61 67
63 61 2 -6 -1 -42 -7 -80 -12 -76 -7 -118 20 -172 48 -96 205 -91 356 11 75
50 231 193 323 295 71 78 313 336 418 445 l53 55 -19 -40 c-11 -22 -66 -116
-121 -210 -182 -306 -208 -423 -121 -544 60 -82 172 -105 276 -57 119 55 329
241 468 414 32 39 64 72 71 72 8 0 62 53 122 117 153 166 238 252 220 223 -8
-14 -60 -97 -116 -185 -190 -304 -223 -420 -159 -550 30 -60 66 -93 120 -111
57 -19 99 -14 173 20 106 48 297 212 437 375 51 58 104 111 118 117 15 7 37
25 50 40 l23 29 -6 -30 c-26 -132 -30 -186 -19 -269 18 -137 67 -227 145 -268
33 -17 60 -22 128 -22 83 -1 90 1 172 43 82 41 232 156 306 235 35 36 36 36
115 36 93 0 165 17 244 57 63 31 170 126 203 179 20 33 20 64 0 64 -5 0 -47
-38 -93 -83 -97 -98 -202 -157 -292 -165 -91 -7 -94 2 -32 91 105 151 158 289
157 408 -1 117 -29 181 -102 235 -44 33 -90 44 -176 44 -135 0 -290 -68 -472
-208 -85 -65 -277 -254 -323 -319 -17 -24 -38 -43 -45 -43 -17 0 -49 -31 -197
-194 -183 -201 -279 -279 -391 -316 -73 -24 -95 -19 -115 29 -27 67 -5 109
341 647 131 205 242 379 245 388 5 14 -9 16 -124 16 l-129 0 -119 -123 c-146
-150 -285 -303 -343 -379 -28 -35 -54 -58 -70 -61 -18 -4 -74 -57 -171 -163
-307 -334 -472 -437 -530 -329 -38 72 16 173 483 910 143 226 266 420 274 433
13 22 16 22 236 22 l224 0 23 25 23 25 -209 1 c-115 1 -213 2 -219 4 -5 1 -13
3 -17 3 -8 2 57 113 173 294 38 59 65 108 61 108 -71 4 -206 4 -224 0z m-1684
-834 c42 -18 85 -73 93 -120 8 -51 -26 -147 -103 -291 -120 -223 -273 -409
-427 -519 -71 -51 -150 -86 -193 -86 -34 0 -70 39 -84 89 -21 80 52 305 161
490 60 101 159 230 223 289 83 76 206 144 294 161 1 1 18 -5 36 -13z m3376
-11 c35 -18 73 -67 89 -114 51 -153 -80 -447 -303 -679 -136 -142 -254 -212
-355 -212 -43 0 -53 4 -75 31 -34 40 -40 67 -33 148 17 200 174 498 362 687
132 134 236 180 315 139z"/>
<path d="M11075 1747 c-83 -27 -215 -129 -351 -269 -130 -134 -274 -311 -274
-336 0 -37 50 3 178 142 309 333 426 425 515 402 73 -18 37 -87 -346 -661
-121 -181 -228 -341 -239 -354 -10 -13 -18 -28 -18 -32 0 -5 57 -9 128 -9
l127 1 131 162 c386 476 703 805 846 878 46 23 86 22 102 -4 16 -26 -18 -82
-169 -282 -145 -193 -207 -294 -236 -385 -36 -115 -21 -240 38 -319 33 -43
103 -75 146 -65 90 19 221 120 418 320 179 183 231 254 185 254 -7 0 -93 -84
-191 -186 -223 -232 -354 -333 -432 -334 -29 0 -53 36 -53 80 1 65 38 128 223
380 201 273 251 457 156 573 -81 98 -193 62 -415 -133 -53 -47 -142 -134 -198
-195 -55 -60 -123 -132 -149 -160 l-49 -50 37 67 c19 36 50 104 67 150 26 69
32 98 32 173 1 78 -2 95 -23 128 -13 21 -33 44 -45 52 -32 21 -96 26 -141 12z"/>
<path d="M26675 1747 c-83 -27 -215 -129 -351 -269 -130 -134 -274 -311 -274
-336 0 -37 50 3 178 142 309 333 426 425 515 402 73 -18 37 -87 -346 -661
-121 -181 -228 -341 -239 -354 -10 -13 -18 -28 -18 -32 0 -5 57 -9 128 -9
l127 1 131 162 c386 476 703 805 846 878 46 23 86 22 102 -4 16 -26 -18 -82
-169 -282 -145 -193 -207 -294 -236 -385 -36 -115 -21 -240 38 -319 33 -43
103 -75 146 -65 90 19 221 120 418 320 179 183 231 254 185 254 -7 0 -93 -84
-191 -186 -223 -232 -354 -333 -432 -334 -29 0 -53 36 -53 80 1 65 38 128 223
380 201 273 251 457 156 573 -81 98 -193 62 -415 -133 -53 -47 -142 -134 -198
-195 -55 -60 -123 -132 -149 -160 l-49 -50 37 67 c19 36 50 104 67 150 26 69
32 98 32 173 1 78 -2 95 -23 128 -13 21 -33 44 -45 52 -32 21 -96 26 -141 12z"/>
</g>
</svg>
