<?xml version="1.0" standalone="no"?>
<!DOCTYPE svg PUBLIC "-//W3C//DTD SVG 20010904//EN"
 "http://www.w3.org/TR/2001/REC-SVG-20010904/DTD/svg10.dtd">
<svg version="1.0" xmlns="http://www.w3.org/2000/svg"
 width="2709.000000pt" height="389.000000pt" viewBox="0 0 2709.000000 389.000000"
 preserveAspectRatio="xMidYMid meet">

<g transform="translate(0.000000,389.000000) scale(0.100000,-0.100000)"
fill="#ffffff" stroke="none">
<path d="M1420 3720 c-160 -34 -269 -81 -413 -177 -375 -249 -663 -730 -684
-1144 -5 -99 -4 -108 16 -128 12 -12 34 -21 51 -21 46 0 62 34 72 153 27 321
161 599 408 848 166 167 347 276 548 331 61 17 107 21 222 22 132 0 152 -2
228 -27 77 -26 105 -47 63 -47 -72 0 -357 -126 -504 -223 -374 -247 -602 -586
-648 -964 -36 -301 126 -571 396 -656 58 -18 91 -22 200 -21 110 1 144 6 220
28 360 107 640 382 790 775 61 160 86 281 92 442 5 137 4 152 -20 237 -31 108
-87 224 -128 268 l-29 30 81 13 c98 15 213 15 323 1 208 -27 333 -70 544 -187
l62 -35 -44 -29 c-103 -68 -338 -342 -495 -574 -98 -145 -277 -442 -368 -610
-79 -146 -330 -557 -408 -670 -169 -242 -322 -372 -477 -404 -52 -11 -76 -9
-255 23 -300 53 -324 56 -453 57 -137 0 -191 -13 -226 -54 -30 -36 -30 -70 -2
-127 30 -58 101 -95 211 -110 107 -14 183 -13 462 6 208 15 267 15 443 4 507
-31 896 51 1260 268 149 89 243 162 367 287 129 129 221 255 304 415 119 230
165 417 164 670 0 297 -67 520 -225 753 l-41 61 49 45 c28 25 98 79 156 119
137 95 188 142 188 174 0 33 -23 52 -57 45 -99 -18 -286 -114 -395 -202 l-67
-54 -68 46 c-97 65 -291 156 -408 192 -212 65 -354 74 -598 41 l-146 -19 -93
44 c-109 51 -198 81 -288 95 -101 16 -283 11 -380 -10z m807 -405 c29 -55 67
-143 84 -195 27 -81 32 -110 32 -195 -1 -362 -205 -766 -484 -956 -149 -101
-324 -161 -474 -163 -109 -1 -160 19 -230 88 -86 86 -109 184 -81 345 64 366
320 735 680 980 140 95 357 203 400 198 13 -1 36 -33 73 -102z m1388 -610 c52
-172 45 -417 -20 -638 -78 -269 -208 -494 -397 -686 -245 -247 -514 -388 -891
-463 -91 -18 -146 -22 -292 -23 -99 0 -207 4 -240 9 l-60 8 59 18 c121 38 250
133 442 324 249 249 407 476 747 1071 126 222 368 630 457 771 12 20 19 11 91
-140 43 -88 90 -201 104 -251z"/>
<path d="M18432 3625 c-245 -82 -552 -268 -858 -522 -246 -204 -619 -571 -692
-681 l-35 -53 -30 55 c-57 107 -172 221 -323 322 -166 111 -310 158 -479 158
-196 0 -323 -49 -445 -172 -123 -123 -177 -262 -187 -488 -8 -176 28 -317 125
-489 77 -136 238 -326 319 -377 18 -11 33 -23 33 -27 0 -15 -316 -216 -433
-275 -146 -73 -327 -136 -497 -171 -171 -36 -452 -45 -619 -21 -336 50 -575
203 -651 417 -31 89 -39 259 -15 349 21 83 82 197 151 282 191 236 531 385
833 364 202 -14 362 -76 454 -176 86 -93 106 -189 72 -352 -42 -201 -169 -329
-401 -401 -110 -35 -268 -57 -403 -57 -61 0 -111 -3 -111 -6 0 -3 13 -23 30
-43 24 -31 42 -42 105 -60 66 -20 89 -22 168 -16 351 26 593 165 712 410 50
104 75 209 75 322 -1 241 -115 411 -358 532 -237 119 -534 132 -820 36 -284
-95 -509 -286 -622 -528 -63 -134 -80 -212 -80 -362 0 -300 104 -502 340 -662
218 -148 524 -213 899 -192 234 13 436 62 691 170 186 79 439 228 542 319 l41
36 81 -48 c158 -94 437 -199 572 -214 30 -4 56 -10 58 -13 3 -4 -18 -60 -45
-125 -27 -66 -47 -121 -44 -124 2 -3 88 4 191 14 l186 18 48 96 48 95 82 13
c89 14 193 48 280 92 173 87 283 228 222 283 -34 31 -69 21 -135 -39 -107 -96
-194 -145 -322 -180 -91 -25 -91 -30 -7 154 121 266 392 800 510 1007 159 279
256 431 580 915 161 240 292 439 292 443 0 12 -21 7 -128 -28z m-357 -366
c-175 -169 -340 -375 -550 -689 -249 -371 -435 -700 -512 -906 l-38 -101 -1
186 c-1 186 -12 289 -51 443 l-17 67 49 53 c412 449 669 678 1035 924 102 68
186 124 188 124 1 0 -45 -46 -103 -101z m-1866 -559 c178 -34 359 -163 479
-343 l52 -79 -37 -43 c-21 -23 -110 -125 -198 -226 -88 -101 -246 -272 -352
-379 l-192 -195 -76 75 c-188 185 -276 381 -278 620 -1 136 17 201 89 317 82
132 198 218 335 247 79 18 112 19 178 6z m605 -657 c10 -65 21 -183 24 -263 6
-190 -14 -328 -75 -516 l-46 -141 -86 19 c-190 42 -283 76 -459 170 l-113 60
108 116 c59 65 110 119 113 122 11 11 448 487 475 518 15 17 31 32 34 32 4 0
15 -53 25 -117z"/>
<path d="M5112 3178 c-529 -940 -736 -1257 -1078 -1652 -71 -81 -142 -165
-157 -186 -28 -36 -28 -38 -13 -69 26 -49 63 -43 127 22 l52 52 -23 -40 c-13
-22 -54 -93 -92 -159 -74 -126 -208 -378 -208 -389 0 -4 62 -7 138 -7 l137 0
24 38 c26 39 207 271 299 382 105 127 365 400 449 472 144 124 241 182 212
126 -16 -31 -89 -130 -196 -265 -178 -225 -236 -365 -212 -515 25 -162 101
-249 218 -250 101 0 243 105 509 377 101 103 185 185 187 183 2 -2 -11 -35
-29 -74 -44 -92 -56 -136 -56 -210 0 -160 104 -278 245 -276 119 2 289 114
491 324 56 58 110 120 120 137 13 23 26 31 46 31 16 0 41 12 63 31 l35 31 -34
-69 c-19 -37 -39 -86 -45 -108 -14 -52 -14 -167 1 -216 15 -51 70 -114 121
-140 54 -28 156 -29 217 -2 72 32 194 135 364 310 114 116 166 163 183 163 12
0 38 14 58 31 l35 31 -42 -87 c-37 -78 -42 -98 -46 -175 -7 -141 34 -223 137
-275 47 -24 156 -22 213 3 71 31 193 136 367 314 91 92 171 168 178 168 10 0
13 -24 13 -97 0 -101 18 -201 46 -254 21 -41 82 -107 114 -124 14 -7 54 -18
88 -25 149 -27 313 49 514 238 l68 64 82 3 c51 1 109 11 150 24 70 23 193 98
241 149 25 26 34 29 71 25 l42 -5 166 179 c251 271 350 358 422 370 33 5 36 4
30 -13 -20 -56 -322 -529 -476 -748 -65 -92 -148 -241 -148 -266 0 -6 58 -10
158 -9 l157 0 65 82 c392 492 744 867 884 942 78 42 57 1 -109 -219 -204 -271
-260 -384 -260 -526 0 -92 23 -163 71 -219 46 -53 83 -72 144 -73 59 0 131 31
210 91 141 106 446 422 465 481 11 34 -19 70 -59 70 -31 0 -47 -14 -182 -161
-239 -258 -415 -393 -438 -334 -16 43 50 162 203 363 141 186 201 310 209 433
5 90 -7 136 -51 185 -113 130 -259 75 -550 -206 -70 -67 -127 -121 -127 -119
0 2 7 26 15 53 17 56 20 145 5 195 -36 127 -163 178 -292 118 -113 -52 -293
-212 -459 -408 -62 -73 -96 -106 -103 -99 -5 5 -25 10 -44 10 -27 0 -40 -8
-65 -37 -96 -114 -213 -188 -312 -198 -36 -4 -44 -3 -29 4 54 24 157 205 190
331 20 81 14 198 -14 262 -25 57 -83 115 -141 141 -71 32 -191 35 -282 7 -192
-58 -414 -218 -617 -443 -46 -50 -93 -96 -105 -100 -12 -4 -93 -79 -182 -165
-227 -224 -376 -342 -430 -342 -74 0 -48 77 122 368 123 210 333 546 530 847
192 294 509 795 570 900 63 108 123 232 116 239 -4 3 -70 6 -148 6 l-141 0
-174 -282 c-352 -574 -616 -955 -873 -1263 -128 -154 -269 -304 -290 -311 -12
-3 -94 -77 -182 -163 -228 -223 -377 -341 -430 -341 -74 0 -49 77 122 368 123
210 307 505 570 909 444 686 667 1056 646 1076 -3 4 -70 7 -148 7 l-141 0
-174 -282 c-191 -313 -414 -654 -536 -823 -247 -343 -569 -728 -619 -741 -23
-6 -139 -120 -278 -276 -93 -104 -214 -198 -293 -228 -55 -20 -59 -20 -71 -4
-7 10 -13 24 -13 31 0 22 56 126 154 287 50 83 118 199 150 257 31 58 91 147
132 198 72 90 122 173 150 253 l13 38 -162 -1 -162 -1 -155 -164 c-85 -91
-195 -212 -245 -270 -54 -63 -106 -112 -130 -125 -26 -13 -77 -64 -145 -145
-58 -69 -138 -157 -177 -195 -83 -78 -196 -157 -233 -161 -23 -3 -25 0 -24 35
2 58 62 167 176 319 258 343 299 496 172 647 -79 94 -196 80 -364 -44 -36 -27
-123 -107 -195 -179 -71 -72 -123 -120 -114 -106 9 14 166 281 349 595 183
314 400 684 482 823 81 139 148 255 148 257 0 3 -67 5 -149 5 l-150 0 -29 -52z
m3893 -1411 c69 -69 66 -190 -10 -354 -76 -165 -255 -385 -381 -468 -69 -46
-150 -75 -188 -68 -91 18 -61 231 66 474 95 183 252 364 361 419 79 39 110 39
152 -3z"/>
<path d="M6335 2697 c-104 -48 -163 -187 -117 -276 62 -123 231 -98 304 44 27
52 27 138 1 173 -46 62 -126 87 -188 59z"/>
<path d="M20435 2696 c-41 -18 -94 -73 -116 -121 -79 -169 99 -309 240 -189
80 69 105 165 65 249 -29 62 -119 92 -189 61z"/>
<path d="M23846 2700 c-40 -12 -104 -76 -127 -125 -35 -75 -17 -165 42 -208
111 -81 285 38 281 193 -3 105 -96 172 -196 140z"/>
<path d="M22844 2502 l-121 -197 -95 -3 -94 -3 -37 -63 c-20 -34 -37 -66 -37
-69 0 -4 40 -7 90 -7 l89 0 -118 -157 c-125 -166 -197 -252 -401 -479 -112
-126 -128 -139 -161 -142 -33 -3 -49 -17 -155 -133 -189 -205 -387 -369 -447
-369 -17 0 -18 5 -12 37 14 76 71 175 317 551 176 268 243 384 254 439 l5 28
-155 0 -156 0 -43 -102 c-42 -102 -57 -123 -57 -81 0 39 -41 109 -80 134 -51
34 -93 45 -176 45 -98 0 -179 -22 -309 -86 -148 -72 -295 -186 -442 -340 -66
-69 -126 -125 -135 -125 -15 0 -169 -154 -248 -249 -68 -81 -207 -198 -275
-230 -96 -46 -103 -47 -116 -14 -13 36 5 76 145 308 57 94 131 220 165 280 34
61 88 142 121 180 60 70 118 168 145 244 l14 41 -159 0 -158 0 -159 -167
c-208 -219 -311 -335 -349 -392 -2 -2 -15 6 -29 17 -37 29 -59 18 -149 -72
-74 -73 -174 -135 -251 -152 l-30 -7 38 42 c85 94 204 302 247 430 12 36 24
94 26 130 7 81 -15 122 -79 151 -73 34 -123 23 -181 -39 -26 -28 -30 -39 -37
-133 -18 -213 -81 -394 -194 -553 -55 -78 -186 -201 -260 -245 -112 -66 -238
-97 -279 -67 -17 12 -17 18 -6 53 18 59 76 162 185 334 112 175 158 273 176
370 23 130 -14 221 -112 275 -103 56 -195 31 -352 -94 -132 -107 -377 -376
-443 -488 -20 -34 -23 -46 -14 -62 13 -26 54 -37 84 -23 13 6 83 77 157 159
199 222 296 315 370 356 83 47 93 47 86 3 -6 -36 -55 -119 -148 -251 -81 -115
-164 -269 -189 -353 -56 -184 15 -376 152 -412 78 -21 238 9 353 68 64 32 142
85 240 162 l77 62 86 3 c150 4 271 60 379 173 50 53 53 55 71 39 28 -25 52
-21 90 16 19 17 33 28 30 22 -2 -5 -18 -40 -35 -77 -42 -89 -53 -131 -53 -204
0 -77 22 -141 67 -193 91 -107 217 -112 373 -13 115 73 327 269 406 377 59 81
69 75 71 -38 4 -221 79 -371 202 -403 117 -30 276 30 413 156 l77 71 6 -38
c31 -192 167 -245 370 -144 82 41 227 158 315 255 120 133 188 199 215 213 17
8 48 33 70 54 l40 39 -51 -105 c-67 -136 -91 -228 -75 -292 25 -96 81 -167
160 -200 52 -22 152 -13 222 21 112 53 281 199 431 374 44 50 87 92 96 92 9 0
31 15 50 33 l34 32 -25 -51 c-108 -215 -82 -408 66 -490 143 -78 329 14 602
297 55 57 111 121 125 141 14 21 33 38 43 38 15 0 17 -11 17 -95 0 -153 29
-250 96 -325 47 -52 81 -70 158 -81 151 -22 304 50 504 235 l72 68 83 3 c50 1
108 11 149 24 70 23 193 98 241 149 25 26 34 29 71 25 l42 -5 186 199 c251
269 350 353 415 353 20 0 21 -3 13 -24 -21 -55 -305 -501 -457 -718 -75 -107
-163 -262 -163 -288 0 -6 56 -10 158 -9 l157 0 150 185 c316 390 584 679 738
795 128 96 140 79 39 -58 -37 -50 -106 -144 -154 -210 -99 -134 -161 -248
-184 -343 -28 -110 -3 -232 61 -308 95 -110 219 -96 390 45 155 128 396 379
426 446 18 39 -10 77 -55 77 -31 0 -47 -14 -178 -156 -166 -182 -278 -281
-366 -327 -53 -27 -64 -30 -72 -17 -26 39 22 128 189 355 165 224 221 343 221
470 0 181 -139 277 -292 200 -87 -44 -169 -108 -307 -241 -72 -69 -131 -125
-131 -123 0 2 7 26 15 53 31 101 15 212 -37 272 -87 99 -208 89 -368 -32 -93
-70 -233 -207 -341 -335 -62 -73 -96 -106 -103 -99 -5 5 -25 10 -44 10 -27 0
-40 -8 -65 -37 -96 -114 -213 -188 -312 -198 -36 -4 -44 -3 -29 4 54 24 157
205 190 331 19 77 15 195 -10 254 -45 109 -136 167 -272 174 -128 7 -257 -39
-421 -149 -128 -87 -300 -244 -400 -366 -20 -24 -43 -43 -53 -43 -18 0 -127
-108 -256 -254 -119 -135 -246 -230 -351 -261 -19 -5 -25 -1 -34 21 -14 37 -1
65 131 284 58 96 132 223 163 281 32 58 92 147 133 198 72 90 122 173 150 253
l13 38 -159 0 -158 0 -147 -152 c-81 -84 -195 -208 -252 -274 -78 -92 -112
-123 -134 -128 -21 -4 -57 -34 -117 -98 -282 -301 -383 -390 -469 -419 -29 -9
-38 -9 -51 4 -13 14 -14 22 -3 59 21 71 111 234 267 480 81 128 175 280 209
338 35 58 107 173 161 257 l99 152 215 1 215 0 37 63 c30 51 34 63 22 70 -9 5
-105 7 -215 4 -109 -2 -199 -1 -199 2 0 2 20 30 43 60 51 66 118 178 158 267
16 35 29 66 29 69 0 3 -69 5 -152 5 l-153 -1 -121 -197z m-1508 -726 c28 -28
34 -42 34 -75 0 -107 -152 -385 -314 -574 -109 -127 -275 -247 -343 -247 -59
0 -68 92 -23 229 81 248 254 505 413 615 52 36 159 85 186 86 7 0 28 -15 47
-34z m3369 -9 c69 -69 66 -186 -10 -352 -75 -166 -254 -386 -381 -470 -69 -46
-150 -75 -188 -68 -91 18 -61 231 66 474 105 202 281 397 393 437 55 19 85 14
120 -21z"/>
</g>
</svg>
