<?xml version="1.0" standalone="no"?>
<!DOCTYPE svg PUBLIC "-//W3C//DTD SVG 20010904//EN"
 "http://www.w3.org/TR/2001/REC-SVG-20010904/DTD/svg10.dtd">
<svg version="1.0" xmlns="http://www.w3.org/2000/svg"
 width="797.000000pt" height="86.000000pt" viewBox="0 0 797.000000 86.000000"
 preserveAspectRatio="xMidYMid meet">
<metadata>
Created by potrace 1.16, written by Peter Selinger 2001-2019
</metadata>
<g transform="translate(0.000000,86.000000) scale(0.100000,-0.100000)"
fill="#000000" stroke="none">
<path d="M7440 733 c0 -5 -15 -25 -34 -43 -28 -28 -33 -39 -29 -64 5 -30 -82
-299 -121 -373 -33 -65 -79 -88 -127 -63 -18 10 -19 24 -19 254 l0 244 30 11
c17 5 30 12 30 15 0 4 -54 6 -121 6 -77 0 -118 -4 -114 -10 3 -5 15 -10 25
-10 10 0 21 -4 25 -9 3 -5 7 -110 10 -233 5 -239 0 -270 -43 -276 -12 -2 -22
-8 -22 -13 0 -5 86 -9 208 -9 l207 1 -27 20 c-23 17 -28 29 -28 61 0 22 5 58
12 79 l11 39 86 0 86 0 23 -62 c29 -82 29 -114 0 -125 -16 -5 11 -10 82 -13
58 -3 107 -4 109 -3 2 1 -9 12 -23 25 -20 17 -50 85 -122 283 -87 236 -114
299 -114 268z m-2 -235 c16 -46 33 -91 37 -100 6 -16 -1 -18 -70 -18 -58 0
-76 3 -72 13 2 6 17 51 33 100 15 48 31 87 35 87 3 0 20 -37 37 -82z"/>
<path d="M3895 719 c-95 -29 -146 -154 -95 -236 22 -36 41 -48 155 -92 89 -35
106 -46 123 -78 39 -73 -21 -153 -115 -153 -76 0 -136 65 -164 180 l-14 55 -5
-115 c-3 -63 -5 -116 -4 -118 1 -2 11 2 22 9 16 10 28 9 68 -6 142 -55 282 14
300 147 14 99 -35 159 -163 202 -43 14 -93 35 -110 46 -85 52 -31 157 76 147
61 -7 91 -32 134 -117 l37 -75 -6 90 c-7 108 -11 126 -24 105 -8 -13 -18 -12
-74 3 -71 19 -96 20 -141 6z"/>
<path d="M4568 716 c-127 -35 -208 -146 -208 -284 0 -171 141 -303 307 -288
78 7 120 24 173 72 117 105 124 294 16 421 -58 69 -193 106 -288 79z m143 -29
c115 -76 130 -384 23 -488 -31 -30 -41 -34 -89 -34 -43 0 -58 5 -80 25 -77 71
-103 232 -64 385 29 110 131 165 210 112z"/>
<path d="M135 710 c-2 -3 -8 -39 -15 -81 -13 -83 -9 -122 8 -78 21 52 90 118
140 133 l22 7 0 -245 c0 -261 -3 -276 -51 -276 -10 0 -19 -4 -19 -10 0 -6 50
-10 130 -10 123 0 166 10 100 24 -20 4 -34 14 -40 31 -6 15 -10 130 -10 257
l0 230 28 -7 c41 -10 91 -53 125 -107 17 -26 32 -46 34 -44 5 4 -13 137 -22
166 -4 13 -37 15 -216 15 -116 0 -212 -2 -214 -5z"/>
<path d="M1174 709 c-2 -4 9 -12 25 -17 36 -13 41 -46 41 -272 0 -206 -4 -229
-42 -244 -15 -6 -28 -14 -28 -18 0 -4 98 -8 218 -8 l219 0 16 93 c10 51 17 99
17 106 0 22 -18 2 -25 -28 -9 -41 -72 -111 -119 -132 -47 -21 -119 -25 -134
-6 -6 7 -12 65 -14 130 -3 132 1 139 61 110 24 -12 39 -28 45 -48 21 -73 25
-64 25 70 l0 140 -19 -48 c-22 -56 -43 -76 -82 -77 l-28 0 0 121 0 122 54 -6
c89 -9 137 -42 181 -127 14 -26 24 -37 25 -27 0 23 -31 150 -39 159 -8 8 -392
15 -397 7z"/>
<path d="M1856 700 c-11 -38 -27 -162 -23 -167 3 -2 13 10 22 29 24 46 63 86
107 109 21 10 41 19 45 19 4 0 6 -114 3 -252 l-5 -253 -32 -10 c-62 -18 -33
-25 97 -25 80 0 130 4 130 10 0 6 -9 10 -19 10 -48 0 -51 15 -51 276 0 134 2
244 5 244 15 0 73 -35 98 -59 16 -14 38 -44 50 -66 20 -37 22 -38 25 -15 1 14
-3 56 -10 93 l-13 68 -213 2 c-181 2 -213 0 -216 -13z"/>
<path d="M2586 712 c-3 -6 5 -13 18 -16 54 -13 56 -21 56 -241 0 -112 -4 -215
-10 -230 -5 -14 -23 -34 -40 -43 -16 -9 -30 -20 -30 -24 0 -11 168 -10 174 1
3 5 -7 14 -23 21 -46 19 -52 47 -49 250 l3 185 90 -227 c50 -126 94 -227 98
-225 5 1 47 104 94 227 46 124 89 229 94 235 5 5 9 -75 9 -207 0 -231 -3 -248
-51 -248 -11 0 -17 -4 -14 -10 7 -11 227 -14 238 -4 4 4 -8 14 -26 23 l-32 16
-3 220 c-1 121 0 230 3 243 3 12 19 28 38 36 31 14 28 14 -59 15 l-91 1 -14
-42 c-32 -98 -126 -330 -135 -331 -5 -1 -41 79 -81 178 -40 99 -73 183 -75
186 -5 11 -176 21 -182 11z"/>
<path d="M4962 713 c-23 -4 -22 -5 10 -21 l33 -17 0 -240 0 -240 -33 -16 c-25
-13 -29 -18 -16 -23 26 -10 222 -7 229 4 3 6 -3 10 -14 10 -43 0 -51 24 -51
151 0 128 1 130 54 109 30 -11 66 -65 66 -97 0 -13 5 -23 10 -23 6 0 10 50 10
129 0 128 -12 178 -24 102 -7 -47 -45 -81 -88 -81 l-29 0 3 117 c3 135 1 132
94 113 65 -14 112 -51 139 -110 18 -39 41 -57 31 -22 -3 9 -13 47 -22 85 l-16
67 -153 0 c-84 0 -165 2 -181 4 -16 2 -40 2 -52 -1z"/>
<path d="M5603 706 c16 -7 33 -19 38 -27 5 -8 9 -113 9 -234 0 -235 -6 -265
-51 -265 -10 0 -19 -4 -19 -10 0 -11 232 -14 244 -3 3 4 -8 12 -26 17 l-33 11
-3 239 c-2 247 0 266 39 266 10 0 21 5 24 10 4 6 -39 10 -122 9 -112 -1 -124
-2 -100 -13z"/>
<path d="M5855 710 c3 -5 12 -10 19 -10 7 0 25 -9 40 -21 l26 -20 0 -205 c0
-229 -5 -252 -62 -275 l-33 -13 53 -4 c28 -2 76 -2 105 0 l52 4 -33 13 c-56
22 -62 48 -62 251 0 99 3 180 8 180 4 0 27 -28 52 -62 120 -167 292 -393 300
-396 5 -2 10 111 12 251 3 234 5 257 22 276 21 23 56 27 74 9 9 -9 12 -77 12
-244 0 -249 -3 -264 -51 -264 -11 0 -17 -4 -14 -10 4 -6 71 -10 169 -10 194 0
244 11 298 67 63 66 73 96 73 209 0 94 -2 104 -30 149 -35 57 -100 110 -153
125 -21 5 -142 10 -277 10 l-240 0 42 -19 c52 -24 55 -38 51 -215 l-3 -129
-136 179 -136 179 -92 3 c-62 2 -91 -1 -86 -8z m845 -29 c19 -10 48 -40 65
-66 28 -46 30 -55 33 -169 4 -117 3 -123 -25 -175 -35 -67 -79 -94 -142 -88
-76 8 -76 7 -79 277 l-3 240 58 0 c38 0 71 -7 93 -19z"/>
<path d="M596 701 c5 -5 18 -11 29 -13 27 -5 33 -49 34 -267 2 -218 -2 -240
-40 -248 -64 -12 -22 -23 91 -23 73 0 120 4 120 10 0 6 -8 10 -18 10 -36 0
-42 20 -42 147 l0 123 100 0 100 0 0 -126 0 -126 -30 -11 c-16 -6 -30 -15 -30
-19 0 -4 54 -8 120 -8 113 0 155 11 91 23 -18 4 -31 14 -35 29 -10 40 -7 448
4 469 6 10 19 19 30 19 10 0 22 5 25 10 4 6 -37 10 -116 10 -74 0 -119 -4
-114 -9 6 -5 19 -11 30 -13 18 -3 20 -12 23 -115 3 -131 8 -126 -118 -121
l-75 3 -3 104 c-3 108 4 131 39 131 11 0 19 5 19 10 0 6 -47 10 -122 10 -73 0
-118 -4 -112 -9z"/>
<path d="M2343 696 c16 -7 33 -19 38 -27 5 -8 9 -113 9 -234 0 -235 -6 -265
-51 -265 -10 0 -19 -4 -19 -10 0 -6 47 -10 120 -10 66 0 120 4 120 8 0 4 -14
13 -30 19 l-30 11 2 249 c3 239 4 248 23 251 11 2 24 8 30 13 5 5 -41 9 -115
8 -109 -1 -121 -2 -97 -13z"/>
<path d="M3275 700 c3 -5 14 -10 24 -10 38 0 41 -16 41 -254 0 -127 -4 -236
-8 -243 -4 -6 -21 -18 -37 -25 -26 -11 -2 -13 189 -16 120 -1 221 0 224 2 5 5
41 172 42 194 0 24 -18 11 -23 -17 -16 -77 -121 -161 -203 -161 -67 0 -75 17
-72 151 l3 114 30 -3 c41 -5 74 -38 81 -84 13 -79 24 -33 24 98 0 129 -10 166
-24 90 -8 -42 -47 -76 -87 -76 l-29 0 0 115 c0 90 3 117 14 121 27 10 129 -16
163 -42 18 -14 45 -48 59 -76 14 -27 27 -48 30 -45 3 2 -5 43 -17 91 l-21 86
-205 0 c-134 0 -202 -3 -198 -10z"/>
</g>
</svg>
