<?xml version="1.0" standalone="no"?>
<!DOCTYPE svg PUBLIC "-//W3C//DTD SVG 20010904//EN"
 "http://www.w3.org/TR/2001/REC-SVG-20010904/DTD/svg10.dtd">
<svg version="1.0" xmlns="http://www.w3.org/2000/svg"
 width="1150.000000pt" height="153.000000pt" viewBox="0 0 1150.000000 153.000000"
 preserveAspectRatio="xMidYMid meet">
<metadata>
Created by potrace 1.16, written by Peter Selinger 2001-2019
</metadata>
<g transform="translate(0.000000,153.000000) scale(0.100000,-0.100000)"
fill="#000000" stroke="none">
<path d="M10121 1361 c-8 -5 -11 -16 -6 -30 6 -21 10 -21 308 -23 166 -1 285
-3 264 -5 -39 -4 -39 -5 -87 -108 -27 -57 -58 -109 -69 -114 -12 -7 -106 -11
-249 -11 -260 0 -236 -8 -292 95 -18 33 -40 66 -48 73 -19 14 -58 16 -67 2 -3
-5 8 -61 26 -122 27 -97 31 -124 26 -190 -5 -71 -3 -78 15 -84 16 -5 29 4 57
35 l36 42 65 -14 65 -13 3 -224 c2 -194 0 -222 -11 -205 -8 11 -33 47 -56 80
-23 33 -68 98 -99 145 -31 47 -59 87 -62 90 -3 3 -30 42 -60 88 l-55 82 -92 0
-93 0 0 -385 0 -385 95 0 95 0 0 237 c0 267 -6 257 76 138 26 -38 77 -113 113
-165 36 -52 82 -121 104 -152 l39 -58 89 0 89 0 0 336 0 337 36 -6 c20 -3 90
-36 155 -72 65 -36 135 -69 156 -73 30 -6 43 -16 60 -47 13 -22 23 -43 23 -47
0 -4 -30 -8 -67 -10 -53 -2 -68 -6 -68 -18 0 -13 35 -15 245 -18 217 -2 249 0
279 15 37 19 59 53 25 38 -55 -23 -68 -19 -92 29 -12 26 -22 48 -22 50 0 2 26
6 58 10 126 15 170 45 157 105 -3 17 -22 44 -41 61 -32 28 -40 30 -113 30
l-79 0 -35 68 c-19 37 -38 77 -42 90 -6 21 -4 22 54 22 44 0 61 4 61 13 0 12
-95 70 -197 121 -17 8 -41 31 -53 51 -17 27 -28 35 -50 35 -16 0 -31 3 -33 8
-3 4 130 6 294 4 267 -2 300 -1 306 13 3 9 -1 23 -8 31 -13 12 -55 11 -304 -5
-163 -10 -291 -15 -293 -10 -5 12 -29 12 -34 0 -3 -8 -82 -4 -498 23 -47 3
-91 2 -99 -3z m755 -309 c12 -7 64 -101 64 -114 0 -5 -33 -8 -74 -8 l-74 0
-26 56 c-15 30 -24 60 -21 65 7 11 115 12 131 1z m168 -402 l26 -50 -125 0
-125 0 -25 50 -25 50 124 0 124 0 26 -50z"/>
<path d="M3335 956 c-127 -26 -227 -99 -285 -208 -33 -61 -34 -67 -34 -178 0
-104 2 -120 26 -170 68 -145 208 -230 377 -230 216 0 375 125 411 323 41 223
-104 427 -331 466 -77 13 -85 13 -164 -3z m195 -170 c98 -50 146 -168 116
-287 -30 -115 -110 -179 -227 -179 -85 0 -146 35 -197 115 -23 35 -26 50 -26
130 0 119 26 169 118 221 57 33 153 33 216 0z"/>
<path d="M9040 955 c-129 -26 -228 -102 -287 -222 -35 -73 -44 -200 -19 -285
22 -76 84 -159 157 -207 74 -49 111 -61 213 -68 132 -9 230 23 317 104 136
127 166 314 78 482 -53 103 -164 178 -293 201 -72 12 -83 12 -166 -5z m186
-161 c89 -36 134 -114 134 -229 0 -83 -21 -140 -67 -183 -90 -83 -234 -84
-322 -1 -40 38 -71 117 -71 185 0 143 93 244 226 244 34 0 79 -7 100 -16z"/>
<path d="M70 564 l0 -386 213 4 c211 4 212 4 277 35 109 51 175 130 204 244
20 81 20 128 1 202 -20 79 -48 129 -95 176 -45 44 -79 64 -159 92 -46 16 -83
19 -248 19 l-193 0 0 -386z m396 220 c61 -29 95 -68 118 -137 21 -63 20 -106
-4 -174 -38 -109 -111 -153 -252 -153 l-88 0 0 245 0 245 86 0 c71 0 94 -4
140 -26z"/>
<path d="M880 565 l0 -385 90 0 90 0 0 160 0 160 155 0 155 0 0 -160 0 -160
95 0 95 0 0 385 0 385 -95 0 -95 0 0 -155 0 -155 -155 0 -155 0 0 155 0 155
-90 0 -90 0 0 -385z"/>
<path d="M1690 565 l0 -385 90 0 90 0 0 385 0 385 -90 0 -90 0 0 -385z"/>
<path d="M2010 565 l0 -385 220 0 220 0 0 65 0 65 -135 0 -135 0 0 320 0 320
-85 0 -85 0 0 -385z"/>
<path d="M2520 565 l0 -385 220 0 220 0 0 65 0 65 -130 0 -130 0 0 320 0 320
-90 0 -90 0 0 -385z"/>
<path d="M3940 565 l0 -385 85 0 85 0 0 251 0 252 63 -92 c34 -50 111 -163
171 -251 l108 -160 89 0 89 0 0 385 0 385 -90 0 -90 0 0 -245 0 -246 -87 128
c-106 157 -126 187 -134 193 -3 3 -8 10 -10 15 -2 6 -26 43 -53 83 l-49 72
-88 0 -89 0 0 -385z"/>
<path d="M5271 932 c-10 -19 -16 -35 -69 -182 -17 -47 -41 -110 -52 -140 -12
-30 -25 -66 -30 -80 -5 -14 -18 -50 -30 -80 -12 -30 -25 -66 -30 -80 -5 -14
-18 -50 -30 -80 -12 -30 -25 -67 -27 -83 l-5 -27 88 0 89 0 17 43 c9 23 20 54
24 70 l6 27 153 0 153 0 23 -67 24 -68 98 -3 97 -3 -15 33 c-7 18 -53 139
-101 268 -47 129 -95 258 -106 285 -11 28 -23 61 -28 75 -5 14 -15 43 -23 65
l-15 40 -101 3 c-89 2 -101 1 -110 -16z m143 -293 c14 -41 32 -92 40 -114 25
-66 26 -65 -80 -65 -87 0 -96 2 -91 18 3 9 22 62 43 117 20 55 39 111 42 124
6 30 13 19 46 -80z"/>
<path d="M5799 923 c5 -15 13 -39 19 -53 15 -35 83 -214 127 -330 8 -22 22
-58 30 -80 8 -22 21 -57 29 -77 22 -59 47 -125 64 -165 l15 -38 109 0 c88 0
108 3 108 15 0 8 6 29 14 47 8 18 21 52 30 76 29 78 48 127 57 147 13 32 50
127 64 165 7 19 20 53 28 75 66 169 87 226 87 235 0 6 -37 10 -93 10 l-93 0
-22 -62 c-12 -35 -37 -108 -57 -163 -20 -55 -47 -131 -60 -170 -39 -111 -55
-159 -61 -175 -6 -15 -11 -4 -67 160 -14 41 -35 100 -47 130 -12 30 -32 87
-45 125 -13 39 -31 88 -39 110 l-14 40 -95 3 -96 3 8 -28z"/>
<path d="M6660 565 l0 -385 85 0 85 0 0 385 0 385 -85 0 -85 0 0 -385z"/>
<path d="M7199 923 c-6 -15 -26 -68 -44 -118 -19 -49 -43 -115 -55 -145 -27
-70 -47 -124 -65 -175 -8 -22 -36 -100 -63 -173 l-50 -133 96 3 95 3 9 30 c5
17 16 47 25 68 l16 37 149 0 c110 0 150 -3 153 -13 2 -6 14 -38 25 -69 l21
-58 91 0 c106 0 102 -14 43 145 -20 55 -40 111 -45 125 -5 14 -18 50 -30 80
-12 30 -25 66 -30 80 -5 14 -35 95 -67 180 l-58 155 -103 3 -102 3 -11 -28z
m124 -215 c3 -13 15 -48 27 -78 12 -30 27 -73 34 -95 8 -22 17 -48 21 -57 7
-16 -2 -18 -94 -18 l-100 0 35 98 c20 53 40 114 46 135 12 42 23 48 31 15z"/>
<path d="M7750 880 l0 -70 100 0 100 0 0 -315 0 -315 90 0 90 0 0 315 0 315
105 0 105 0 0 70 0 70 -295 0 -295 0 0 -70z"/>
<path d="M8440 565 l0 -385 90 0 90 0 0 385 0 385 -90 0 -90 0 0 -385z"/>
</g>
</svg>
