<?xml version="1.0" standalone="no"?>
<!DOCTYPE svg PUBLIC "-//W3C//DTD SVG 20010904//EN"
 "http://www.w3.org/TR/2001/REC-SVG-20010904/DTD/svg10.dtd">
<svg version="1.0" xmlns="http://www.w3.org/2000/svg"
 width="1512.000000pt" height="652.000000pt" viewBox="0 0 1512.000000 652.000000"
 preserveAspectRatio="xMidYMid meet">

<g transform="translate(0.000000,652.000000) scale(0.100000,-0.100000)"
fill="#000000" stroke="none">
<path d="M5073 3816 c-238 -58 -403 -271 -403 -521 0 -315 258 -554 573 -531
272 20 471 218 493 491 21 269 -157 511 -414 564 -69 14 -183 13 -249 -3z
m250 -192 c64 -22 139 -91 166 -155 87 -202 7 -444 -166 -503 -60 -21 -176
-20 -236 0 -68 23 -138 91 -172 166 -25 55 -29 76 -29 158 -1 123 19 182 85
255 64 69 124 94 230 94 44 1 95 -6 122 -15z"/>
<path d="M12645 3820 c-407 -82 -563 -594 -273 -896 288 -300 808 -164 903
237 82 351 -167 673 -520 668 -38 -1 -88 -5 -110 -9z m228 -194 c136 -49 217
-193 204 -361 -8 -96 -33 -159 -90 -221 -62 -68 -126 -94 -235 -94 -170 0
-282 101 -311 280 -28 172 57 346 192 394 53 18 190 19 240 2z"/>
<path d="M780 3295 l0 -527 243 5 c179 3 256 9 296 20 220 64 351 226 368 452
19 269 -125 482 -372 550 -44 12 -124 18 -297 22 l-238 6 0 -528z m522 312
c70 -34 131 -101 155 -170 24 -70 24 -235 -1 -292 -62 -145 -156 -195 -363
-195 l-113 0 0 346 0 346 133 -4 c120 -3 138 -6 189 -31z"/>
<path d="M1850 3295 l0 -525 105 0 105 0 0 225 0 225 225 0 225 0 0 -225 0
-225 105 0 105 0 0 525 0 525 -105 0 -105 0 -2 -217 -3 -218 -220 0 -220 0 -3
218 -2 217 -105 0 -105 0 0 -525z"/>
<path d="M2930 3295 l0 -525 100 0 100 0 0 525 0 525 -100 0 -100 0 0 -525z"/>
<path d="M3350 3295 l0 -525 275 0 275 0 0 80 0 80 -172 2 -173 3 -3 443 -2
442 -100 0 -100 0 0 -525z"/>
<path d="M4030 3295 l0 -525 275 0 275 0 0 80 0 80 -167 2 -168 3 -3 443 -2
442 -105 0 -105 0 0 -525z"/>
<path d="M5900 3295 l0 -525 100 0 100 0 0 355 c0 195 3 355 8 355 4 0 113
-160 242 -355 l235 -355 102 0 103 0 0 525 0 525 -105 0 -105 0 -2 -357 -3
-357 -235 357 -235 357 -102 0 -103 0 0 -525z"/>
<path d="M7662 3793 c-27 -67 -362 -1007 -362 -1015 0 -5 48 -7 107 -6 l106 3
32 95 32 95 213 0 213 0 32 -95 32 -95 111 -3 111 -3 -25 68 c-14 37 -98 273
-188 523 l-163 455 -120 3 -120 3 -11 -28z m202 -426 c38 -111 71 -208 74
-214 3 -10 -31 -13 -148 -13 -117 0 -151 3 -148 13 3 6 36 103 74 214 38 112
71 203 74 203 3 0 36 -91 74 -203z"/>
<path d="M8373 3758 c13 -35 99 -271 192 -525 l170 -463 126 0 126 0 187 510
c103 281 189 517 192 525 5 13 -10 15 -104 15 l-110 0 -60 -172 c-32 -95 -97
-282 -142 -415 -46 -134 -86 -240 -89 -237 -3 3 -69 189 -147 412 l-141 407
-111 3 -112 3 23 -63z"/>
<path d="M9500 3295 l0 -525 100 0 100 0 0 525 0 525 -100 0 -100 0 0 -525z"/>
<path d="M10219 3793 c-11 -29 -318 -880 -349 -970 l-19 -53 108 0 109 0 33
98 34 97 212 3 212 2 32 -100 33 -100 109 0 c99 0 109 2 105 18 -3 9 -81 226
-173 482 -92 256 -174 484 -182 508 l-15 42 -119 0 -119 0 -11 -27z m209 -445
l71 -208 -149 0 c-83 0 -150 3 -150 8 0 22 144 422 150 415 4 -4 39 -101 78
-215z"/>
<path d="M10940 3735 l0 -85 135 0 135 0 0 -440 0 -440 105 0 105 0 0 440 0
440 140 0 140 0 0 85 0 85 -380 0 -380 0 0 -85z"/>
<path d="M11860 3295 l0 -525 100 0 100 0 0 525 0 525 -100 0 -100 0 0 -525z"/>
<path d="M13450 3295 l0 -525 105 0 105 0 2 356 3 357 235 -356 235 -357 103
0 102 0 0 525 0 525 -100 0 -100 0 0 -355 c0 -195 -4 -355 -8 -355 -4 0 -113
160 -242 355 l-235 355 -102 0 -103 0 0 -525z"/>
</g>
</svg>
