<?xml version="1.0" standalone="no"?>
<!DOCTYPE svg PUBLIC "-//W3C//DTD SVG 20010904//EN"
 "http://www.w3.org/TR/2001/REC-SVG-20010904/DTD/svg10.dtd">
<svg version="1.0" xmlns="http://www.w3.org/2000/svg"
 width="512.000000pt" height="512.000000pt" viewBox="0 0 512.000000 512.000000"
 preserveAspectRatio="xMidYMid meet">

<g transform="translate(0.000000,512.000000) scale(0.100000,-0.100000)"
fill="#FFFFFF" stroke="none">
<path d="M1780 4549 c-76 -15 -162 -64 -222 -127 -44 -46 -74 -95 -142 -230
-47 -94 -99 -186 -116 -206 -36 -40 -121 -86 -162 -86 l-28 0 0 89 c0 75 -3
93 -23 122 -43 64 -64 69 -322 69 -258 0 -279 -5 -322 -69 -20 -29 -23 -47
-23 -125 l0 -91 -61 -12 c-168 -32 -300 -156 -345 -326 -21 -81 -21 -2578 1
-2660 21 -81 50 -132 108 -194 97 -103 204 -143 385 -143 96 0 105 2 127 25
32 31 33 75 2 102 -19 18 -37 22 -142 25 -98 3 -129 8 -170 26 -63 29 -109 73
-143 137 l-27 50 -3 1287 c-2 1264 -2 1287 18 1340 26 70 66 117 131 153 l54
30 410 5 c401 6 411 6 470 29 142 56 197 118 315 351 95 189 123 224 209 264
45 21 58 21 771 24 481 2 742 -1 775 -8 63 -13 143 -68 174 -117 12 -21 61
-111 108 -200 97 -184 148 -245 247 -293 93 -44 158 -50 553 -50 l361 0 63
-33 c40 -20 75 -48 96 -75 67 -88 64 -13 61 -1428 l-3 -1279 -27 -50 c-34 -64
-80 -108 -143 -137 l-50 -23 -1934 -3 -1935 -2 -23 -22 c-33 -30 -31 -80 3
-107 l27 -21 1916 0 c2104 0 1986 -3 2096 60 61 35 144 120 174 178 53 103 51
59 51 1424 0 901 -3 1282 -11 1320 -28 131 -121 249 -244 309 l-70 34 -415 5
c-409 5 -416 5 -467 29 -80 35 -122 90 -218 280 -68 134 -98 184 -140 227 -60
61 -148 107 -234 124 -67 12 -1476 12 -1541 -1z m-820 -589 l0 -70 -195 0
-195 0 0 70 0 70 195 0 195 0 0 -70z"/>
<path d="M2138 4150 c-24 -25 -29 -36 -24 -58 4 -15 16 -35 28 -44 18 -17 54
-18 418 -18 364 0 400 1 418 18 12 9 24 29 28 44 5 22 0 33 -24 58 l-30 30
-392 0 -392 0 -30 -30z"/>
<path d="M553 3549 c-120 -21 -197 -115 -197 -239 0 -139 102 -240 241 -240
147 1 255 122 240 268 -14 138 -145 235 -284 211z m112 -181 c32 -38 32 -78
-1 -117 -50 -60 -148 -30 -160 50 -5 28 -1 41 20 66 42 50 100 50 141 1z"/>
<path d="M2465 3549 c-518 -36 -962 -388 -1119 -887 -77 -245 -75 -538 5 -776
66 -196 159 -346 309 -497 169 -171 359 -281 587 -341 113 -30 127 -32 313
-32 187 0 200 2 315 32 357 95 657 338 824 668 199 397 172 884 -72 1256 -258
397 -687 609 -1162 577z m215 -153 c231 -16 477 -133 663 -314 214 -209 324
-459 334 -757 12 -331 -94 -603 -326 -836 -440 -441 -1148 -439 -1586 5 -230
233 -334 500 -322 831 10 286 111 526 306 729 158 163 325 262 539 317 75 19
242 38 292 33 14 -2 59 -5 100 -8z"/>
<path d="M2365 3183 c-366 -78 -655 -385 -716 -758 -16 -103 -6 -288 21 -385
88 -315 344 -568 660 -652 122 -32 338 -32 460 0 256 69 480 251 595 487 73
149 89 224 90 405 0 161 -7 205 -55 333 -18 47 -29 62 -53 72 -37 16 -65 7
-91 -28 l-20 -27 33 -97 c27 -80 35 -118 39 -209 6 -150 -14 -248 -78 -379
-97 -197 -251 -330 -465 -402 -71 -23 -96 -27 -220 -27 -120 -1 -150 2 -215
22 -144 46 -250 112 -353 219 -92 96 -156 215 -188 350 -30 124 -23 293 15
408 111 329 395 535 736 535 184 0 349 -58 494 -175 77 -61 104 -67 141 -30
40 39 33 72 -26 127 -105 98 -269 181 -421 212 -97 20 -288 20 -383 -1z"/>
<path d="M4450 3460 c-30 -30 -27 -83 6 -109 22 -17 41 -21 104 -21 63 0 82 4
104 21 34 27 36 77 3 107 -20 19 -35 22 -110 22 -74 0 -90 -3 -107 -20z"/>
</g>
</svg>
