<?xml version="1.0" standalone="no"?>
<!DOCTYPE svg PUBLIC "-//W3C//DTD SVG 20010904//EN"
 "http://www.w3.org/TR/2001/REC-SVG-20010904/DTD/svg10.dtd">
<svg version="1.0" xmlns="http://www.w3.org/2000/svg"
 width="512.000000pt" height="512.000000pt" viewBox="0 0 512.000000 512.000000"
 preserveAspectRatio="xMidYMid meet">
<metadata>
Created by potrace 1.16, written by Peter Selinger 2001-2019
</metadata>
<g transform="translate(0.000000,512.000000) scale(0.100000,-0.100000)"
fill="#FFFFFF" stroke="none">
<path d="M1940 5020 c-19 -19 -20 -33 -20 -240 l0 -220 -180 0 c-228 0 -220 5
-220 -145 0 -58 -3 -105 -7 -105 -5 0 -212 -36 -462 -79 -331 -58 -458 -84
-472 -97 -18 -17 -19 -45 -19 -861 0 -463 -3 -843 -6 -843 -3 0 -24 13 -47 28
-138 94 -291 57 -368 -88 -21 -40 -16 -148 9 -196 27 -52 40 -64 329 -279
l242 -180 1 -358 c0 -343 1 -358 20 -377 11 -11 29 -20 40 -20 20 0 20 -7 20
-360 l0 -360 -360 0 -360 0 0 -80 0 -80 2480 0 2480 0 0 80 0 80 -360 0 -360
0 0 360 c0 353 0 360 20 360 11 0 29 9 40 20 19 19 20 34 20 377 l1 358 260
194 c144 107 271 208 283 225 85 115 48 283 -77 348 -30 15 -61 22 -107 22
-65 1 -89 -7 -165 -54 l-35 -22 0 837 c0 516 -4 843 -10 854 -5 10 -22 23 -37
29 -23 9 -877 162 -905 162 -4 0 -8 47 -8 105 0 150 8 145 -220 145 l-180 0 0
220 c0 207 -1 221 -20 240 -20 20 -33 20 -620 20 -587 0 -600 0 -620 -20z
m1100 -300 l0 -160 -480 0 -480 0 0 160 0 160 480 0 480 0 0 -160z m400 -938
l0 -619 -26 -24 c-83 -76 -134 -206 -134 -339 0 -170 71 -307 209 -402 146
-102 379 -105 530 -9 266 171 302 549 73 763 -105 98 -202 133 -356 126 -55
-3 -109 -8 -118 -13 -17 -7 -18 18 -18 434 l0 441 23 -5 c12 -2 180 -32 372
-65 193 -33 362 -63 378 -66 l27 -6 0 -841 0 -842 -58 -37 -59 -38 -494 0
-495 0 -51 49 c-27 26 -76 61 -109 77 l-59 29 -515 0 -515 0 -59 -29 c-33 -16
-82 -51 -109 -77 l-51 -49 -495 0 -494 0 -59 38 -58 37 0 842 0 841 28 6 c15
3 185 33 377 66 193 33 360 62 373 65 l22 5 0 -441 c0 -416 -1 -441 -17 -434
-10 5 -62 10 -117 13 -120 5 -201 -14 -284 -68 -145 -94 -225 -240 -225 -410
0 -168 83 -320 224 -411 151 -96 384 -93 530 9 138 95 209 232 209 402 0 133
-51 263 -134 339 l-26 24 0 619 0 618 880 0 880 0 0 -618z m-1932 -707 c59
-32 101 -75 134 -138 19 -35 23 -58 23 -137 0 -86 -3 -100 -29 -148 -100 -180
-333 -219 -488 -83 -21 18 -51 60 -68 93 -26 52 -30 72 -30 137 0 128 59 224
173 281 58 29 68 31 147 28 70 -3 94 -9 138 -33z m2390 5 c71 -36 115 -83 150
-158 21 -47 24 -64 20 -136 -7 -126 -63 -213 -171 -266 -152 -74 -331 -17
-412 131 -33 61 -45 167 -26 236 17 61 70 134 125 171 61 41 94 50 182 51 60
1 80 -4 132 -29z m-3324 -870 l193 -130 497 0 496 0 0 -354 c0 -386 2 -400 59
-478 35 -47 95 -93 148 -113 33 -12 -29 -14 -524 -14 l-563 -1 0 338 c0 255
-3 342 -12 354 -7 9 -128 102 -268 208 -300 226 -300 227 -300 257 0 29 33 63
61 63 11 0 107 -58 213 -130z m4226 110 c28 -28 25 -62 -7 -92 -16 -14 -139
-109 -275 -211 -135 -103 -253 -194 -262 -203 -14 -13 -16 -58 -16 -355 l0
-339 -562 1 c-496 0 -558 2 -525 14 53 20 113 66 148 113 57 78 59 92 59 478
l0 354 498 0 497 0 195 130 c107 71 203 130 213 130 9 0 26 -9 37 -20z m-2420
-92 c0 -7 -16 -116 -34 -243 -21 -148 -30 -238 -25 -252 12 -31 168 -265 187
-280 17 -14 80 -17 99 -5 7 4 53 68 103 142 73 108 90 141 90 171 0 20 -13
133 -30 250 -16 118 -30 218 -30 223 0 5 60 7 138 4 112 -4 144 -9 177 -26 54
-27 94 -68 119 -122 20 -43 21 -61 21 -365 0 -344 -1 -351 -54 -399 l-21 -19
0 386 0 387 -80 0 -80 0 0 -400 0 -400 -400 0 -400 0 0 400 0 400 -80 0 -80 0
0 -387 0 -386 -21 19 c-53 48 -54 55 -54 399 0 304 1 322 21 365 36 77 100
127 179 141 75 12 255 10 255 -3z m219 -217 l34 -230 -34 -50 c-19 -28 -36
-50 -39 -50 -3 0 -20 22 -39 50 l-34 50 34 230 c18 126 36 229 39 229 3 0 21
-103 39 -229z m361 -1331 l0 -440 -84 0 c-79 0 -84 1 -89 22 -3 13 -38 187
-77 388 -64 332 -73 367 -96 388 -14 12 -38 22 -54 22 -16 0 -40 -10 -54 -22
-23 -21 -32 -56 -96 -388 -39 -201 -74 -375 -77 -387 -5 -22 -10 -23 -89 -23
l-84 0 0 440 0 440 400 0 400 0 0 -440z m-1200 -80 l0 -361 -86 3 -87 3 -74
300 c-80 328 -83 335 -152 335 -65 0 -72 -16 -153 -340 l-75 -295 -86 -3 -87
-3 0 361 0 360 400 0 400 0 0 -360z m240 0 l0 -360 -40 0 -40 0 0 360 0 360
40 0 40 0 0 -360z m1200 0 l0 -360 -40 0 -40 0 0 360 0 360 40 0 40 0 0 -360z
m960 0 l0 -361 -86 3 -87 3 -74 300 c-80 328 -83 335 -152 335 -65 0 -72 -16
-153 -340 l-75 -295 -86 -3 -87 -3 0 361 0 360 400 0 400 0 0 -360z m-1569
-230 l26 -130 -57 0 -57 0 26 130 c14 72 28 130 31 130 3 0 17 -58 31 -130z"/>
<path d="M1840 4160 l0 -80 80 0 80 0 0 80 0 80 -80 0 -80 0 0 -80z"/>
<path d="M2160 4160 l0 -80 80 0 80 0 0 80 0 80 -80 0 -80 0 0 -80z"/>
<path d="M2800 4160 l0 -80 80 0 80 0 0 80 0 80 -80 0 -80 0 0 -80z"/>
<path d="M3120 4160 l0 -80 80 0 80 0 0 80 0 80 -80 0 -80 0 0 -80z"/>
<path d="M880 3840 l0 -80 80 0 80 0 0 80 0 80 -80 0 -80 0 0 -80z"/>
<path d="M1200 3840 l0 -80 80 0 80 0 0 80 0 80 -80 0 -80 0 0 -80z"/>
<path d="M1840 3840 l0 -80 80 0 80 0 0 80 0 80 -80 0 -80 0 0 -80z"/>
<path d="M2160 3840 l0 -80 80 0 80 0 0 80 0 80 -80 0 -80 0 0 -80z"/>
<path d="M2800 3840 l0 -80 80 0 80 0 0 80 0 80 -80 0 -80 0 0 -80z"/>
<path d="M3120 3840 l0 -80 80 0 80 0 0 80 0 80 -80 0 -80 0 0 -80z"/>
<path d="M3760 3840 l0 -80 80 0 80 0 0 80 0 80 -80 0 -80 0 0 -80z"/>
<path d="M4080 3840 l0 -80 80 0 80 0 0 80 0 80 -80 0 -80 0 0 -80z"/>
<path d="M880 3520 l0 -80 80 0 80 0 0 80 0 80 -80 0 -80 0 0 -80z"/>
<path d="M1200 3520 l0 -80 80 0 80 0 0 80 0 80 -80 0 -80 0 0 -80z"/>
<path d="M3760 3520 l0 -80 80 0 80 0 0 80 0 80 -80 0 -80 0 0 -80z"/>
<path d="M4080 3520 l0 -80 80 0 80 0 0 80 0 80 -80 0 -80 0 0 -80z"/>
<path d="M2408 3421 c-74 -24 -144 -69 -200 -129 -91 -97 -128 -194 -128 -332
0 -138 37 -235 128 -332 95 -102 206 -148 353 -148 144 0 257 48 351 148 91
97 128 194 128 332 0 138 -37 235 -128 332 -57 61 -127 105 -203 129 -81 25
-222 25 -301 0z m290 -181 c71 -36 115 -83 150 -158 21 -47 24 -64 20 -136 -7
-126 -63 -213 -171 -266 -152 -74 -331 -17 -412 131 -33 61 -45 167 -26 236
17 61 70 134 125 171 61 41 94 50 182 51 60 1 80 -4 132 -29z"/>
</g>
</svg>
