<?xml version="1.0" standalone="no"?>
<!DOCTYPE svg PUBLIC "-//W3C//DTD SVG 20010904//EN"
 "http://www.w3.org/TR/2001/REC-SVG-20010904/DTD/svg10.dtd">
<svg version="1.0" xmlns="http://www.w3.org/2000/svg"
 width="512.000000pt" height="512.000000pt" viewBox="0 0 512.000000 512.000000"
 preserveAspectRatio="xMidYMid meet">

<g transform="translate(0.000000,512.000000) scale(0.100000,-0.100000)"
fill="#FFFFFF" stroke="none">
<path d="M830 4804 c-106 -22 -223 -86 -300 -164 -108 -107 -180 -278 -180
-425 0 -118 50 -262 124 -358 21 -27 36 -50 34 -51 -279 -162 -456 -415 -497
-711 -7 -51 -11 -525 -11 -1436 l0 -1359 2560 0 2560 0 0 1359 c0 911 -4 1385
-11 1436 -28 206 -134 411 -286 556 -44 43 -147 118 -211 155 -2 1 13 24 34
51 74 96 124 240 124 358 0 129 -67 302 -155 402 -61 70 -170 140 -263 171
-106 35 -255 37 -357 5 -256 -80 -427 -311 -426 -573 0 -142 34 -246 118 -363
19 -27 33 -50 31 -52 -2 -2 -24 9 -48 24 -101 63 -152 75 -305 75 -154 0 -207
-13 -306 -74 -27 -16 -51 -30 -54 -30 -2 0 20 36 50 80 67 99 95 184 102 310
10 176 -48 324 -177 451 -240 238 -600 238 -841 -1 -128 -126 -186 -275 -176
-450 7 -126 35 -211 102 -310 30 -44 53 -80 50 -80 -2 0 -25 13 -52 30 -83 51
-157 72 -278 77 -133 6 -205 -9 -312 -67 -40 -22 -73 -37 -73 -35 0 3 15 26
34 52 83 117 117 221 117 363 1 379 -350 664 -721 584z m255 -319 c177 -86
221 -318 91 -472 -15 -17 -54 -46 -88 -62 -109 -55 -242 -39 -332 40 -25 22
-57 65 -73 97 -37 76 -39 183 -4 252 42 83 122 149 206 171 53 14 143 3 200
-26z m1563 20 c116 -35 201 -142 210 -265 6 -90 -16 -154 -76 -221 -64 -72
-125 -99 -222 -99 -97 0 -158 27 -222 99 -60 67 -82 131 -76 222 14 191 200
319 386 264z m1644 -16 c59 -29 115 -84 146 -144 38 -74 38 -178 -1 -257 -34
-69 -101 -131 -164 -152 -26 -9 -77 -16 -113 -16 -162 0 -291 130 -291 292 0
139 74 243 204 290 65 23 158 18 219 -13z m-3179 -895 c95 -24 99 -28 82 -68
-43 -101 -49 -269 -14 -381 26 -86 47 -128 94 -189 20 -27 34 -50 32 -52 -2
-3 -26 9 -53 25 -223 136 -528 97 -719 -93 -126 -125 -179 -252 -179 -426 0
-71 6 -124 18 -165 20 -67 72 -167 112 -215 15 -17 25 -32 23 -34 -2 -1 -26
-15 -52 -30 -26 -15 -73 -48 -103 -72 l-55 -45 3 618 3 618 28 80 c32 89 51
124 114 207 74 98 212 187 343 222 75 20 246 20 323 0z m750 0 c63 -21 130
-83 164 -152 39 -79 39 -183 1 -257 -31 -60 -87 -115 -148 -146 -69 -35 -176
-33 -252 4 -180 88 -226 319 -94 474 15 17 54 46 88 62 50 25 74 31 128 31 36
0 87 -7 113 -16z m892 -9 c28 -9 51 -18 53 -20 2 -2 -7 -36 -20 -76 -18 -59
-23 -96 -22 -179 1 -131 31 -229 105 -338 28 -41 46 -72 42 -70 -4 2 -39 19
-78 39 -102 52 -155 64 -280 64 -123 0 -177 -14 -283 -71 -34 -19 -65 -34 -67
-34 -3 0 17 33 45 73 27 39 61 108 76 152 37 106 39 264 6 365 -12 36 -22 68
-22 71 0 6 67 29 125 43 47 12 271 -1 320 -19z m743 -6 c34 -16 73 -45 88 -62
132 -155 86 -386 -94 -474 -76 -37 -183 -39 -252 -4 -61 31 -117 86 -148 146
-38 74 -38 178 1 257 33 66 100 130 160 152 23 8 74 15 113 15 60 1 80 -4 132
-30z m827 16 c179 -45 340 -175 423 -340 69 -137 66 -106 70 -788 l3 -618 -55
45 c-30 24 -77 57 -103 72 -26 15 -50 29 -52 30 -2 2 10 20 26 41 90 115 126
219 127 368 1 178 -51 303 -178 431 -189 189 -497 229 -720 93 -27 -16 -51
-28 -53 -25 -2 2 12 25 32 52 47 61 68 103 94 189 35 112 29 280 -14 381 -16
40 -15 41 70 65 78 23 249 25 330 4z m-3277 -900 c68 -20 152 -97 181 -165 31
-73 31 -173 -2 -243 -54 -117 -164 -183 -292 -175 -115 8 -203 65 -252 166
-38 77 -39 183 -3 257 68 140 217 205 368 160z m868 -5 c43 -11 82 -24 86 -28
3 -4 -3 -34 -14 -67 -28 -83 -35 -229 -14 -317 19 -83 68 -185 113 -237 l33
-39 -52 -32 c-91 -56 -184 -138 -249 -221 -35 -43 -66 -76 -69 -72 -3 5 -26
34 -50 66 -68 91 -140 153 -299 254 -2 1 12 24 32 50 123 169 154 387 82 575
l-14 37 42 16 c105 39 253 45 373 15z m771 -8 c63 -33 111 -79 141 -136 23
-44 27 -63 27 -136 0 -73 -4 -92 -27 -136 -54 -103 -154 -164 -268 -164 -114
0 -214 61 -268 164 -23 44 -27 63 -27 136 0 73 4 92 27 136 38 72 107 129 188
155 45 15 162 4 207 -19z m798 17 c32 -6 76 -18 97 -26 30 -12 36 -18 29 -32
-22 -41 -42 -151 -42 -231 0 -137 37 -251 118 -363 20 -26 34 -49 32 -50 -159
-101 -231 -163 -299 -254 -24 -32 -47 -61 -50 -66 -3 -4 -34 29 -69 72 -65 83
-158 165 -249 221 l-52 32 33 39 c45 52 94 154 113 237 21 88 14 234 -14 317
-11 33 -17 63 -13 67 4 5 40 17 81 27 85 22 198 26 285 10z m789 -10 c67 -25
133 -86 166 -154 36 -74 35 -179 -3 -257 -49 -101 -137 -158 -252 -166 -176
-11 -317 121 -316 297 0 95 28 157 98 221 87 79 197 101 307 59z m-3152 -905
c115 -29 246 -112 327 -205 51 -60 100 -149 128 -234 26 -79 27 -85 31 -412
l4 -333 -656 0 -656 0 0 305 c0 239 3 323 16 382 75 367 440 592 806 497z
m1624 -5 c168 -51 318 -176 393 -330 68 -140 71 -162 71 -526 l0 -323 -650 0
-650 0 0 323 c0 364 3 386 71 526 72 147 221 276 377 326 124 40 266 42 388 4z
m1534 17 c240 -44 430 -209 507 -440 27 -81 27 -83 31 -418 l3 -338 -656 0
-657 0 5 333 c5 359 7 377 65 500 105 224 330 369 582 375 25 1 79 -5 120 -12z"/>
</g>
</svg>
