<?xml version="1.0" standalone="no"?>
<!DOCTYPE svg PUBLIC "-//W3C//DTD SVG 20010904//EN"
 "http://www.w3.org/TR/2001/REC-SVG-20010904/DTD/svg10.dtd">
<svg version="1.0" xmlns="http://www.w3.org/2000/svg"
 width="512.000000pt" height="512.000000pt" viewBox="0 0 512.000000 512.000000"
 preserveAspectRatio="xMidYMid meet">

<g transform="translate(0.000000,512.000000) scale(0.100000,-0.100000)"
fill="#FFFFFF" stroke="none">
<path d="M2400 5113 c-645 -46 -1230 -315 -1671 -770 -192 -199 -331 -393
-452 -633 -37 -74 -75 -140 -84 -147 -8 -7 -13 -19 -10 -27 4 -9 -5 -46 -19
-83 -220 -580 -216 -1240 11 -1821 355 -908 1186 -1530 2165 -1621 653 -61
1345 155 1850 577 126 105 319 306 409 425 264 352 427 745 497 1197 27 174
25 549 -4 729 -97 599 -369 1107 -809 1512 -504 463 -1208 710 -1883 662z
m345 -173 c132 -12 258 -32 380 -61 97 -24 325 -100 325 -108 0 -4 -34 -23
-75 -44 l-75 -37 -173 0 c-162 0 -175 -1 -196 -21 -28 -27 -201 -373 -201
-404 0 -48 34 -71 178 -119 75 -25 151 -46 167 -46 17 0 99 18 183 39 l154 39
116 -39 c100 -34 522 -129 573 -129 9 0 65 32 123 70 59 39 108 70 111 70 15
0 198 -241 248 -327 5 -8 -60 -33 -205 -82 l-213 -70 -223 38 c-122 21 -224
40 -226 42 -2 2 -39 59 -84 125 -44 67 -88 124 -97 128 -9 3 -143 6 -298 6
l-281 0 -153 -153 c-140 -140 -153 -156 -153 -188 0 -64 80 -603 94 -634 12
-28 44 -44 337 -169 l324 -139 168 42 168 41 92 -62 92 -63 5 -170 5 -170 168
-332 167 -333 0 -176 0 -177 99 -101 100 -101 -52 -65 c-80 -102 -243 -265
-352 -353 -353 -285 -748 -453 -1220 -519 -138 -19 -455 -16 -609 6 -1062 151
-1894 981 -2040 2038 -33 239 -30 505 10 728 15 83 62 282 69 288 2 2 20 -47
40 -108 20 -60 44 -118 53 -126 8 -9 110 -79 225 -156 l209 -139 -55 -58 c-67
-70 -70 -85 -65 -258 l4 -128 92 -182 c56 -111 101 -188 115 -198 13 -8 106
-32 205 -52 l182 -36 0 -398 0 -399 91 -227 c49 -126 99 -236 110 -245 23 -20
284 -108 320 -108 15 0 36 11 50 26 23 25 24 30 29 235 l5 210 155 117 c85 64
160 128 167 142 8 16 13 68 13 140 l0 115 160 160 c87 87 164 170 170 184 15
39 90 419 90 461 0 67 -18 74 -208 80 l-166 5 -117 194 c-64 107 -127 203
-139 213 -20 16 -47 18 -306 18 l-284 0 -75 148 c-41 81 -81 155 -89 165 -8
10 -32 21 -54 24 -37 5 -43 2 -111 -62 l-71 -67 0 86 0 87 -85 88 -86 89 3 68
3 68 255 37 c141 20 266 40 279 44 13 4 122 66 243 139 l220 132 127 210 127
209 114 40 c136 47 143 51 162 90 34 67 89 255 86 291 -5 61 -25 69 -303 115
-216 35 -256 45 -294 69 -23 15 -39 30 -35 33 5 3 52 17 104 31 269 73 538 98
805 76z m-1015 -250 c47 -31 94 -62 106 -68 12 -6 104 -25 205 -42 101 -17
196 -33 211 -36 l26 -5 -20 -59 -19 -59 -108 -36 c-59 -19 -117 -42 -129 -50
-11 -9 -78 -110 -147 -225 l-126 -210 -195 -117 -196 -117 -301 -43 c-383 -55
-352 -33 -352 -253 l0 -160 83 -82 82 -83 0 -74 c0 -40 -4 -71 -9 -69 -5 2
-83 53 -175 113 l-165 110 -65 194 -65 193 30 67 c172 380 516 767 895 1006
114 72 324 176 338 168 6 -4 49 -32 96 -63z m2034 -70 c55 -34 140 -89 188
-123 96 -69 258 -205 258 -217 0 -4 -30 -27 -66 -51 l-66 -43 -172 33 c-94 19
-242 56 -329 84 l-158 51 -172 -42 -172 -43 -65 22 c-36 12 -66 23 -68 24 -2
2 20 48 47 104 l51 101 149 0 149 0 158 79 c88 44 161 80 163 80 2 1 49 -26
105 -59z m-241 -884 c37 -57 78 -113 91 -125 20 -19 67 -30 298 -68 l275 -46
244 82 c134 44 246 77 251 73 13 -13 97 -210 133 -313 73 -210 109 -390 127
-636 33 -448 -84 -944 -316 -1337 l-58 -98 -64 63 -64 63 0 163 0 162 -170
341 -170 340 0 164 c0 90 -5 177 -11 193 -10 30 -107 102 -266 199 -60 36 -50
37 -265 -16 l-137 -34 -264 113 -264 113 -36 251 -36 252 102 103 102 102 215
0 215 0 68 -104z m-2288 -1017 c33 -67 71 -130 84 -140 22 -18 44 -19 310 -19
l286 0 122 -204 c105 -173 128 -206 154 -215 18 -6 83 -11 145 -11 85 0 114
-3 114 -12 0 -7 -12 -74 -26 -148 l-27 -135 -173 -176 -174 -175 0 -122 0
-122 -160 -120 c-87 -66 -164 -129 -170 -139 -6 -11 -10 -90 -10 -186 0 -139
-2 -166 -14 -162 -8 3 -32 11 -54 17 l-39 12 -77 192 -76 191 0 433 0 433 -23
23 c-18 18 -59 30 -220 62 -109 21 -202 41 -206 44 -5 3 -41 69 -80 147 l-71
143 0 97 0 97 157 158 c86 87 160 158 163 158 3 0 33 -54 65 -121z"/>
</g>
</svg>
