<?xml version="1.0" standalone="no"?>
<!DOCTYPE svg PUBLIC "-//W3C//DTD SVG 20010904//EN"
 "http://www.w3.org/TR/2001/REC-SVG-20010904/DTD/svg10.dtd">
<svg version="1.0" xmlns="http://www.w3.org/2000/svg"
 width="512.000000pt" height="512.000000pt" viewBox="0 0 512.000000 512.000000"
 preserveAspectRatio="xMidYMid meet">
<metadata>
Created by potrace 1.16, written by Peter Selinger 2001-2019
</metadata>
<g transform="translate(0.000000,512.000000) scale(0.100000,-0.100000)"
fill="#FFFFFF" stroke="none">
<path d="M2128 5095 c-14 -14 -28 -39 -32 -56 -10 -49 -6 -141 7 -179 25 -72
120 -90 173 -33 22 24 24 34 24 130 0 102 -1 105 -29 134 -40 39 -106 41 -143
4z"/>
<path d="M1767 4735 c-27 -28 -37 -61 -29 -100 2 -13 16 -36 29 -50 24 -24 32
-25 130 -25 118 0 145 11 163 66 9 25 9 43 0 68 -18 55 -45 66 -163 66 -98 0
-106 -1 -130 -25z"/>
<path d="M2365 4736 c-45 -45 -45 -107 0 -152 22 -22 31 -24 130 -24 104 0
107 1 136 29 23 23 29 38 29 71 0 33 -6 48 -29 71 -29 28 -32 29 -136 29 -99
0 -108 -2 -130 -24z"/>
<path d="M174 4556 c-66 -31 -120 -86 -152 -154 -24 -53 -24 -58 -19 -226 9
-295 82 -521 245 -766 76 -113 262 -300 377 -377 93 -62 242 -141 308 -162
l37 -13 0 -511 c0 -329 4 -526 11 -550 11 -39 56 -77 92 -77 16 0 17 -45 17
-814 0 -484 4 -825 9 -839 28 -72 118 -92 172 -38 l29 29 0 831 0 831 333 0
332 0 43 -63 42 -62 0 -752 c0 -444 4 -762 9 -776 26 -69 113 -90 168 -43 l28
24 5 666 5 666 84 -61 c79 -56 257 -152 329 -177 l32 -11 0 -509 c0 -280 3
-523 6 -541 16 -81 116 -110 175 -52 l29 29 0 595 c0 696 14 626 -132 677
-261 91 -477 258 -635 490 -72 107 -146 280 -178 418 -19 81 -37 288 -29 327
8 39 39 72 75 80 34 8 86 -18 99 -48 5 -12 14 -84 20 -159 22 -287 113 -483
314 -683 145 -144 309 -235 506 -281 111 -25 727 -33 872 -10 236 38 439 145
604 319 84 88 132 159 189 280 59 124 86 235 94 389 8 138 20 171 68 189 33
12 76 3 97 -20 29 -32 34 -75 25 -198 -29 -394 -233 -742 -559 -957 -93 -62
-160 -94 -290 -140 -162 -58 -150 -20 -150 -484 0 -421 2 -431 66 -458 45 -19
84 -11 118 23 l26 25 2 345 3 345 60 23 c381 143 693 452 840 833 64 165 86
277 92 463 7 197 -3 240 -72 317 -61 68 -128 96 -225 96 -97 0 -164 -28 -225
-96 -55 -62 -72 -115 -80 -253 -4 -60 -15 -147 -26 -193 -66 -286 -280 -516
-568 -611 -91 -30 -95 -29 -72 17 37 72 51 142 51 251 0 168 -42 282 -141 381
-93 93 -208 140 -344 140 -225 0 -403 -136 -469 -359 -33 -112 -17 -312 34
-410 l20 -39 -38 10 c-168 46 -352 176 -458 324 -100 140 -149 288 -159 486
-6 99 -12 134 -32 179 -49 113 -145 174 -273 173 -128 0 -230 -65 -282 -179
-20 -44 -22 -65 -21 -177 2 -206 32 -358 108 -550 7 -17 -13 -18 -329 -18
l-336 0 0 523 0 523 -27 26 c-16 14 -53 33 -83 43 -401 129 -721 473 -826 887
-25 98 -47 310 -37 360 14 73 105 104 156 52 29 -28 33 -51 41 -209 12 -232
123 -471 301 -650 127 -126 278 -216 460 -272 l90 -28 435 0 435 0 90 28 c368
112 640 390 737 752 10 39 24 134 30 213 11 130 14 145 36 168 52 52 142 18
156 -60 15 -80 -22 -333 -69 -465 -22 -63 -19 -104 10 -139 53 -63 141 -46
176 34 39 87 77 266 88 410 13 162 5 231 -36 305 -32 61 -70 94 -142 127 -46
21 -63 24 -135 20 -95 -5 -145 -27 -206 -90 -56 -59 -76 -120 -84 -259 -11
-192 -50 -320 -143 -463 -110 -171 -311 -311 -516 -360 l-28 -7 20 38 c38 75
51 143 51 263 0 171 -38 270 -144 375 -191 191 -486 191 -680 0 -100 -99 -146
-218 -146 -380 0 -97 17 -181 50 -245 11 -22 17 -40 12 -40 -5 0 -35 9 -66 20
-255 88 -451 284 -536 539 -24 71 -33 123 -44 248 -14 175 -27 213 -93 279
-57 57 -124 84 -213 84 -58 0 -87 -6 -126 -24z m1621 -577 c59 -30 111 -85
135 -142 19 -42 21 -65 18 -151 -4 -114 -19 -157 -78 -216 -50 -50 -104 -73
-182 -78 -81 -5 -152 23 -211 84 -58 60 -80 130 -75 239 3 79 8 98 34 145 38
66 86 107 156 132 64 22 143 17 203 -13z m1730 -1723 c64 -29 112 -77 141
-141 29 -62 33 -195 8 -268 -20 -60 -79 -126 -140 -157 -99 -49 -240 -24 -316
57 -58 62 -73 108 -73 228 0 94 3 116 22 151 51 96 145 154 248 154 42 0 75
-7 110 -24z"/>
<path d="M2143 4510 c-46 -28 -67 -128 -47 -229 16 -81 116 -110 175 -52 28
29 29 32 29 131 0 113 -11 141 -62 159 -43 15 -58 14 -95 -9z"/>
<path d="M4586 4274 c-25 -26 -26 -31 -26 -133 0 -121 9 -142 65 -161 26 -9
44 -9 70 0 56 19 65 40 65 161 0 102 -1 107 -26 133 -21 21 -36 26 -74 26 -38
0 -53 -5 -74 -26z"/>
<path d="M4226 3914 c-21 -21 -26 -36 -26 -74 0 -38 5 -53 26 -74 26 -25 31
-26 133 -26 121 0 142 9 161 65 9 26 9 44 0 70 -19 56 -40 65 -161 65 -102 0
-107 -1 -133 -26z"/>
<path d="M4833 3925 c-32 -23 -47 -77 -33 -120 19 -56 40 -65 161 -65 102 0
107 1 133 26 21 21 26 36 26 74 0 38 -5 53 -26 74 -26 25 -31 26 -133 26 -79
0 -112 -4 -128 -15z"/>
<path d="M4613 3695 c-46 -20 -53 -42 -53 -158 0 -99 1 -106 26 -131 21 -21
36 -26 74 -26 38 0 53 5 74 26 25 25 26 32 26 131 0 57 -5 113 -11 125 -10 19
-66 48 -91 48 -7 -1 -27 -7 -45 -15z"/>
<path d="M2959 3521 c-80 -80 11 -211 116 -167 35 15 65 59 65 96 0 29 -27 77
-49 90 -11 5 -38 10 -61 10 -33 0 -48 -6 -71 -29z"/>
<path d="M2709 3259 c-165 -115 -285 -179 -396 -212 -108 -32 -133 -56 -133
-127 0 -47 30 -85 75 -96 51 -13 269 67 409 150 105 62 192 127 210 158 30 50
15 112 -34 141 -42 25 -81 21 -131 -14z"/>
<path d="M1613 1362 c-12 -9 -27 -30 -32 -45 -15 -40 -15 -1213 0 -1255 14
-40 49 -62 99 -62 33 0 48 6 71 29 l29 29 0 632 0 632 -29 29 c-24 23 -38 29
-73 29 -25 0 -52 -8 -65 -18z"/>
<path d="M3947 175 c-67 -68 -24 -175 70 -175 36 0 50 6 74 29 65 66 20 171
-74 171 -34 0 -50 -6 -70 -25z"/>
</g>
</svg>
