<?xml version="1.0" standalone="no"?>
<!DOCTYPE svg PUBLIC "-//W3C//DTD SVG 20010904//EN"
 "http://www.w3.org/TR/2001/REC-SVG-20010904/DTD/svg10.dtd">
<svg version="1.0" xmlns="http://www.w3.org/2000/svg"
 width="512.000000pt" height="512.000000pt" viewBox="0 0 512.000000 512.000000"
 preserveAspectRatio="xMidYMid meet">
<metadata>
Created by potrace 1.16, written by Peter Selinger 2001-2019
</metadata>
<g transform="translate(0.000000,512.000000) scale(0.100000,-0.100000)"
fill="#FFFFFF" stroke="none">
<path d="M2435 4997 c-146 -49 -253 -160 -289 -302 -42 -158 6 -322 124 -428
168 -151 412 -151 580 0 225 202 168 576 -108 706 -59 28 -79 32 -167 34 -63
2 -115 -2 -140 -10z m203 -222 c128 -54 169 -219 80 -321 -88 -99 -228 -99
-316 0 -112 128 -16 334 156 336 23 0 59 -7 80 -15z"/>
<path d="M402 4466 c-177 -43 -333 -195 -386 -375 -25 -87 -21 -226 9 -317 31
-91 62 -143 129 -210 106 -106 225 -154 378 -154 158 0 273 47 382 157 210
210 209 542 -3 754 -135 135 -325 189 -509 145z m258 -237 c61 -27 134 -101
161 -163 32 -75 31 -173 -3 -248 -94 -203 -347 -251 -504 -94 -124 124 -125
310 -4 435 93 95 229 122 350 70z"/>
<path d="M4453 4465 c-90 -25 -174 -74 -244 -144 -212 -212 -213 -544 -3 -754
109 -110 224 -157 382 -157 153 0 272 48 378 154 67 67 98 119 129 210 30 91
34 230 9 317 -54 185 -219 341 -402 378 -72 15 -186 13 -249 -4z m264 -240
c198 -90 244 -346 89 -501 -198 -197 -532 -58 -530 221 2 229 232 375 441 280z"/>
<path d="M2230 3934 c-100 -21 -186 -69 -261 -143 -109 -108 -159 -234 -159
-398 l0 -83 -119 0 c-106 0 -121 -2 -151 -22 -25 -18 -71 -93 -199 -329 l-166
-306 -155 195 c-239 301 -301 343 -517 350 -137 4 -217 -11 -292 -55 -70 -41
-139 -116 -174 -191 l-32 -67 -3 -771 -2 -772 25 -30 c32 -38 83 -49 129 -27
68 33 66 3 66 804 0 629 2 726 15 759 35 82 103 123 215 130 89 5 143 -8 197
-47 22 -16 156 -174 297 -350 148 -185 269 -327 286 -336 24 -12 80 -15 314
-15 194 0 293 -4 310 -12 39 -17 58 -55 64 -125 l5 -63 -454 1 -454 0 -145
194 c-80 106 -157 201 -172 209 -52 31 -122 16 -151 -34 -21 -35 -22 -72 -1
-112 24 -47 312 -430 343 -455 l26 -23 577 0 578 0 32 29 33 29 0 169 0 168
-33 67 c-38 78 -94 129 -172 159 -45 17 -78 19 -325 19 -151 0 -275 4 -275 9
0 4 76 147 169 317 l169 309 582 5 582 5 24 28 c36 42 33 106 -5 149 l-29 33
-396 3 -396 3 0 54 c0 163 64 271 200 334 l55 26 275 0 275 0 55 -26 c105 -49
167 -124 189 -227 6 -29 11 -109 11 -178 0 -135 9 -170 52 -192 14 -7 78 -13
167 -14 l144 -3 168 -309 c93 -170 169 -313 169 -318 0 -4 -124 -8 -275 -8
-247 0 -280 -2 -325 -19 -78 -30 -134 -81 -172 -159 l-33 -67 0 -168 0 -169
33 -29 32 -29 549 0 549 0 271 -497 c201 -368 271 -505 271 -530 l0 -33 -2130
0 -2130 0 0 32 c0 24 56 130 210 401 116 203 213 381 216 396 15 75 -62 144
-136 122 -20 -6 -45 -21 -57 -33 -11 -13 -117 -194 -237 -403 l-216 -380 0
-138 c0 -222 -8 -216 298 -217 l232 0 0 -165 c0 -186 9 -224 59 -249 53 -28
107 -17 143 28 15 18 18 46 18 204 l0 182 1600 0 1600 0 0 -182 c0 -158 3
-186 18 -204 36 -45 90 -56 143 -28 50 25 59 63 59 249 l0 165 233 0 c305 1
297 -5 297 216 l0 137 -290 534 c-172 314 -288 538 -284 546 4 6 56 76 115
154 59 78 115 155 123 172 53 102 -49 201 -152 147 -15 -8 -92 -102 -172 -210
l-145 -195 -454 -1 -454 0 5 63 c6 70 25 108 64 125 17 8 116 12 310 12 236 0
290 3 314 15 18 9 136 149 286 336 142 177 275 334 297 350 54 39 108 52 197
47 112 -7 180 -48 215 -130 13 -33 15 -130 15 -759 0 -801 -2 -771 66 -804 46
-22 97 -11 129 27 l25 30 -2 772 -3 771 -32 67 c-35 75 -104 150 -174 191 -75
44 -155 59 -292 55 -216 -7 -278 -49 -517 -350 l-155 -195 -166 306 c-128 236
-174 311 -199 329 -30 20 -45 22 -151 22 l-119 0 0 83 c0 164 -50 287 -160
398 -75 76 -160 122 -265 144 -96 20 -561 20 -655 -1z"/>
<path d="M2020 1380 l0 -110 110 0 110 0 0 110 0 110 -110 0 -110 0 0 -110z"/>
<path d="M2450 1380 l0 -110 110 0 110 0 0 110 0 110 -110 0 -110 0 0 -110z"/>
<path d="M2880 1380 l0 -110 110 0 110 0 0 110 0 110 -110 0 -110 0 0 -110z"/>
</g>
</svg>
