<?xml version="1.0" standalone="no"?>
<!DOCTYPE svg PUBLIC "-//W3C//DTD SVG 20010904//EN"
 "http://www.w3.org/TR/2001/REC-SVG-20010904/DTD/svg10.dtd">
<svg version="1.0" xmlns="http://www.w3.org/2000/svg"
 width="512.000000pt" height="512.000000pt" viewBox="0 0 512.000000 512.000000"
 preserveAspectRatio="xMidYMid meet">

<g transform="translate(0.000000,512.000000) scale(0.100000,-0.100000)"
fill="#FFFFFF" stroke="none">
<path d="M1537 5110 c-123 -31 -233 -133 -272 -251 l-17 -49 -207 0 c-194 0
-210 -1 -234 -20 -22 -17 -27 -30 -29 -78 l-3 -57 -46 -3 c-55 -4 -82 -28 -82
-73 0 -42 31 -70 87 -76 l47 -6 -3 -76 -3 -76 -212 -3 -212 -2 -20 -27 c-21
-26 -21 -26 -21 -1632 l0 -1606 -80 -80 -80 -80 0 1725 c0 1723 0 1724 21
1766 28 59 77 87 162 95 80 7 107 26 107 76 0 55 -28 73 -110 73 -132 0 -243
-69 -300 -185 l-25 -50 0 -1935 0 -1935 24 -50 c17 -36 79 -105 220 -246 230
-230 250 -243 381 -243 124 -1 155 16 315 174 l130 130 970 2 970 3 57 28 c68
33 121 90 157 166 l26 56 3 491 3 491 132 7 c488 26 894 207 1217 542 110 114
169 189 242 306 206 331 299 735 257 1116 -92 849 -742 1499 -1591 1591 -383
42 -797 -54 -1124 -260 l-61 -39 -162 0 c-145 0 -162 2 -167 18 -40 121 -130
224 -232 263 -64 24 -176 33 -235 19z m188 -164 c78 -36 135 -115 135 -186 0
-37 23 -85 45 -94 9 -3 66 -6 127 -6 l111 0 -99 -103 c-55 -57 -117 -129 -139
-160 l-40 -57 -367 0 c-355 0 -369 -1 -388 -20 -25 -25 -26 -71 -1 -101 l19
-24 319 -5 319 -5 -34 -72 -34 -73 -364 0 c-351 0 -365 1 -384 20 -19 19 -20
33 -20 310 l0 290 208 0 c204 0 209 1 229 23 11 12 23 43 26 70 22 165 187
261 332 193z m1785 14 c184 -22 355 -70 520 -147 323 -150 633 -460 783 -783
256 -550 193 -1175 -165 -1663 -80 -108 -262 -287 -371 -364 -155 -109 -349
-198 -537 -247 -380 -99 -772 -56 -1139 123 -122 59 -181 70 -270 47 -77 -20
-100 -34 -184 -115 l-67 -66 -167 168 -168 167 66 67 c80 83 95 106 114 180
24 88 12 155 -46 275 -292 596 -213 1275 207 1779 348 418 898 642 1424 579z
m-2729 -849 c4 -69 8 -85 34 -123 20 -28 49 -52 84 -70 l55 -28 344 0 c271 0
343 -3 339 -12 -3 -7 -13 -46 -23 -85 l-18 -73 -153 0 c-150 0 -155 -1 -178
-25 -28 -27 -30 -42 -14 -78 18 -39 50 -47 188 -47 l129 0 -5 -67 c-2 -38 -6
-74 -8 -80 -3 -10 -38 -13 -130 -13 -70 0 -135 -5 -146 -11 -48 -25 -44 -105
7 -128 14 -6 78 -11 149 -11 l125 0 0 -49 c0 -27 3 -63 6 -80 l7 -31 -141 0
c-122 0 -143 -2 -163 -19 -32 -26 -32 -86 0 -112 20 -17 42 -19 175 -19 l151
0 21 -80 22 -80 -173 0 c-154 0 -175 -2 -196 -19 -32 -26 -32 -86 0 -112 21
-17 43 -19 225 -19 l201 0 37 -80 36 -80 -238 0 c-217 0 -240 -2 -261 -19 -16
-13 -23 -29 -23 -55 0 -69 5 -70 282 -76 l247 -5 -74 -77 -74 -78 -166 0
c-181 0 -203 -6 -215 -55 -4 -16 -1 -38 7 -55 l15 -28 -194 -194 c-172 -171
-194 -197 -194 -226 0 -42 30 -72 72 -72 28 0 54 22 218 184 l185 184 133 43
132 44 187 -188 188 -187 -44 -132 -43 -133 -582 -584 c-394 -395 -594 -589
-621 -602 -100 -47 -142 -25 -348 179 -170 169 -207 219 -207 280 0 70 26 102
325 402 320 321 322 324 270 375 -44 45 -67 35 -181 -77 l-104 -102 0 1482 0
1482 159 0 159 0 3 -79z m1719 -2352 c36 -18 117 -53 180 -79 l115 -47 0 -429
0 -429 -630 -3 -629 -2 251 252 250 253 53 160 52 160 77 79 c79 81 134 115
186 116 17 0 59 -14 95 -31z m541 -181 l70 -11 -3 -492 -3 -491 -27 -41 c-16
-24 -44 -49 -70 -62 -44 -21 -48 -21 -913 -21 l-870 0 80 80 80 80 752 0 752
0 28 24 28 24 3 461 c2 307 6 461 13 461 6 0 42 -5 80 -12z"/>
<path d="M1592 4803 c-21 -8 -43 -61 -36 -88 14 -54 84 -73 122 -32 56 60 -9
151 -86 120z"/>
<path d="M3106 4634 c-654 -122 -1114 -699 -1083 -1358 11 -247 84 -468 224
-679 64 -96 249 -282 347 -347 150 -100 310 -168 488 -207 117 -25 389 -25
508 0 263 56 492 179 674 361 196 197 325 447 372 720 26 155 16 384 -24 539
-36 137 -114 307 -194 424 -64 94 -219 252 -308 315 -142 101 -296 172 -460
214 -90 22 -131 27 -285 30 -131 2 -202 -1 -259 -12z m505 -162 c186 -50 346
-132 486 -252 441 -375 534 -1038 214 -1522 -257 -387 -707 -586 -1161 -513
-243 40 -459 152 -636 329 -305 306 -416 730 -298 1145 30 105 117 285 179
366 175 232 428 394 705 454 127 28 394 24 511 -7z"/>
<path d="M3810 4014 c-22 -9 -161 -141 -362 -342 l-328 -327 -167 167 c-93 92
-181 172 -196 178 -41 15 -112 12 -154 -5 -48 -20 -228 -198 -253 -250 -22
-46 -25 -91 -9 -150 9 -33 63 -93 332 -363 207 -207 336 -330 363 -342 51 -25
117 -25 169 -1 26 12 134 113 303 283 284 286 289 292 237 343 -51 52 -57 47
-340 -235 -199 -199 -266 -260 -285 -260 -35 0 -640 604 -640 640 0 33 166
200 200 200 18 0 73 -49 215 -190 174 -173 194 -190 226 -190 32 0 60 26 389
355 276 276 360 355 380 355 35 0 200 -164 200 -200 0 -19 -27 -52 -105 -130
-95 -94 -105 -108 -105 -141 0 -45 25 -69 71 -69 30 0 47 13 146 113 61 61
118 126 127 144 22 44 20 125 -3 171 -24 45 -204 224 -248 246 -40 20 -117 20
-163 0z"/>
<path d="M2083 2254 c-36 -36 -26 -76 35 -136 60 -61 100 -71 136 -35 42 42
35 74 -32 140 -66 66 -97 73 -139 31z"/>
<path d="M641 3694 c-19 -25 -21 -40 -21 -206 0 -242 -14 -228 230 -228 245 0
230 -15 230 233 0 244 17 227 -232 227 l-187 0 -20 -26z m289 -204 l0 -80 -80
0 -80 0 0 80 0 80 80 0 80 0 0 -80z"/>
<path d="M645 3075 c-25 -24 -25 -26 -25 -205 0 -244 -14 -230 228 -230 166 0
181 2 206 21 l26 20 0 188 c0 248 17 231 -229 231 -180 0 -182 0 -206 -25z
m285 -205 l0 -80 -80 0 -80 0 0 80 0 80 80 0 80 0 0 -80z"/>
<path d="M645 2455 c-25 -24 -25 -26 -25 -205 0 -245 -15 -230 233 -230 244 0
227 -17 227 232 l0 187 -26 20 c-25 19 -40 21 -206 21 -177 0 -179 0 -203 -25z
m285 -205 l0 -80 -80 0 -80 0 0 80 0 80 80 0 80 0 0 -80z"/>
<path d="M1509 1781 c-16 -13 -23 -29 -23 -55 0 -33 10 -47 102 -138 91 -92
105 -102 138 -102 26 0 42 7 55 23 37 46 27 67 -89 183 -116 116 -137 126
-183 89z"/>
</g>
</svg>
