<?xml version="1.0" standalone="no"?>
<!DOCTYPE svg PUBLIC "-//W3C//DTD SVG 20010904//EN"
 "http://www.w3.org/TR/2001/REC-SVG-20010904/DTD/svg10.dtd">
<svg version="1.0" xmlns="http://www.w3.org/2000/svg"
 width="512.000000pt" height="512.000000pt" viewBox="0 0 512.000000 512.000000"
 preserveAspectRatio="xMidYMid meet">

<g transform="translate(0.000000,512.000000) scale(0.100000,-0.100000)"
fill="#FFFFFF" stroke="none">
<path d="M2449 4992 c-164 -43 -283 -180 -311 -359 -15 -97 -5 -265 20 -336
27 -75 75 -142 139 -192 38 -29 52 -47 52 -66 1 -24 -5 -28 -106 -59 -138 -42
-194 -70 -258 -131 -73 -69 -102 -135 -137 -313 -16 -83 -33 -175 -39 -203
l-10 -53 -71 0 c-91 0 -146 -29 -177 -93 -18 -36 -21 -62 -21 -160 0 -130 10
-165 56 -209 40 -37 74 -48 150 -48 l64 0 0 -214 c0 -201 1 -215 21 -240 27
-34 77 -36 107 -3 21 22 22 31 22 240 l0 217 384 0 c373 0 384 1 410 21 34 27
36 77 3 107 -23 22 -25 22 -543 24 l-519 3 0 100 0 100 769 3 768 2 54 -55
c30 -30 79 -72 110 -92 30 -20 53 -41 51 -47 -2 -7 -72 -12 -207 -14 -193 -2
-205 -4 -227 -24 -33 -30 -31 -80 3 -107 21 -17 41 -21 95 -21 l69 0 0 -563 0
-563 -61 -12 -60 -11 -65 44 c-36 25 -76 48 -88 51 l-24 6 32 60 31 61 0 171
c0 169 0 172 -29 228 -74 146 -212 226 -371 216 -136 -9 -262 -94 -323 -217
-26 -54 -27 -61 -27 -227 l0 -171 31 -61 32 -60 -24 -6 c-12 -3 -52 -26 -88
-51 l-65 -44 -60 11 -61 12 0 196 c0 184 -1 198 -20 218 -30 32 -82 30 -109
-4 -20 -25 -21 -39 -21 -231 l0 -205 -42 36 c-22 20 -61 43 -85 52 -24 9 -42
20 -40 23 60 109 62 119 62 286 0 153 -1 163 -27 217 -37 79 -108 152 -185
190 -200 98 -444 1 -523 -209 -44 -119 -37 -331 16 -435 14 -28 24 -51 22 -53
-2 -1 -23 -13 -48 -25 -25 -13 -62 -36 -83 -52 -36 -29 -39 -30 -88 -18 -155
37 -347 -50 -418 -189 -68 -133 -68 -387 -1 -497 11 -17 20 -34 20 -36 0 -3
-27 -15 -60 -27 -105 -39 -198 -132 -229 -231 -13 -41 -91 -447 -91 -473 0
-26 45 -67 75 -67 55 0 67 28 113 270 49 253 65 293 135 334 23 14 78 36 121
50 70 22 82 23 106 11 40 -21 143 -36 192 -29 23 4 63 15 88 24 44 17 46 17
135 -11 100 -31 153 -68 179 -124 10 -20 35 -129 57 -243 22 -114 45 -220 51
-235 20 -51 71 -62 112 -24 22 19 30 47 66 242 23 121 48 235 57 252 27 57 83
98 181 131 l91 30 53 -20 c72 -28 184 -28 256 0 l53 20 90 -30 c96 -32 148
-68 175 -121 9 -16 36 -132 60 -256 39 -202 47 -228 69 -248 33 -29 57 -29 90
0 22 20 30 46 69 248 24 124 51 240 60 256 27 53 79 89 175 121 l90 30 53 -20
c72 -28 184 -28 256 0 l53 20 91 -30 c98 -33 154 -74 181 -131 9 -17 34 -131
57 -252 36 -195 44 -223 66 -242 31 -28 68 -29 94 -3 23 23 20 12 69 267 22
111 47 218 56 238 27 56 80 93 180 124 82 26 93 27 123 14 89 -37 219 -36 292
2 24 12 36 11 106 -11 43 -14 98 -36 121 -50 70 -41 87 -82 133 -329 23 -121
48 -230 56 -242 29 -46 103 -39 126 11 9 20 3 67 -32 248 -24 123 -49 240 -56
261 -33 95 -121 180 -225 218 -33 12 -59 23 -59 24 0 2 11 25 25 52 35 67 48
151 42 273 -3 75 -11 121 -26 162 -69 180 -263 283 -446 237 -42 -11 -46 -10
-82 19 -21 16 -58 39 -83 52 -25 12 -46 24 -48 25 -2 2 8 25 22 53 53 104 60
316 16 435 -79 210 -323 307 -523 209 -77 -38 -148 -111 -185 -190 -26 -54
-27 -64 -27 -217 0 -167 2 -177 62 -286 2 -3 -16 -14 -40 -23 -24 -9 -63 -32
-85 -52 l-42 -36 0 576 0 576 63 0 c74 0 132 24 170 69 15 18 27 36 27 41 0 4
26 1 58 -7 88 -24 259 -21 356 6 254 71 450 260 528 511 20 64 23 95 22 215 0
124 -3 149 -27 220 -15 44 -36 95 -47 113 -39 63 -108 68 -136 9 -15 -31 -14
-36 11 -92 106 -240 60 -493 -124 -676 -118 -118 -252 -174 -416 -173 -170 1
-299 56 -420 178 -132 134 -181 260 -173 446 4 84 11 119 34 175 24 61 28 87
31 193 l4 122 109 0 c98 0 116 3 185 31 171 68 326 63 493 -16 87 -41 111 -43
140 -12 49 52 17 108 -91 157 -181 82 -382 90 -562 23 -59 -22 -92 -27 -211
-32 -123 -5 -145 -9 -164 -26 -40 -36 -50 -76 -50 -205 0 -67 -5 -130 -10
-140 -10 -19 -13 -18 -73 14 -34 19 -110 49 -169 67 -102 30 -108 34 -107 58
0 19 14 37 52 66 107 85 156 188 164 350 13 256 -67 425 -240 509 -96 47 -190
56 -298 28z m230 -161 c62 -32 98 -68 128 -129 26 -54 28 -64 28 -192 0 -147
-11 -189 -69 -257 -42 -50 -138 -93 -206 -93 -43 0 -71 7 -118 31 -111 55
-153 129 -160 284 -5 124 9 200 51 262 33 49 116 108 166 117 49 8 141 -4 180
-23z m-59 -876 c0 -60 -22 -95 -60 -95 -38 0 -60 35 -60 95 l0 55 60 0 60 0 0
-55z m-238 -137 c74 -135 268 -139 350 -7 26 40 35 48 52 43 12 -3 24 -9 28
-13 4 -3 -41 -130 -100 -281 l-108 -275 -44 0 -44 0 -108 275 c-59 151 -108
276 -108 278 0 3 42 20 52 21 3 1 17 -18 30 -41z m-204 -80 c11 -29 54 -140
96 -246 42 -106 76 -198 76 -203 0 -5 -84 -9 -201 -9 -186 0 -200 1 -195 18 3
9 19 91 36 182 34 180 54 227 117 279 21 17 41 31 45 31 3 0 15 -24 26 -52z
m840 16 l42 -36 0 -106 c0 -105 16 -200 45 -275 8 -20 15 -42 15 -47 0 -6 -67
-10 -175 -10 -101 0 -175 4 -175 9 0 5 34 97 76 203 42 106 85 217 96 246 11
28 23 52 27 52 4 0 26 -16 49 -36z m-1624 -1455 c23 -6 57 -29 85 -57 62 -62
74 -107 70 -255 -4 -109 -6 -118 -34 -158 -50 -72 -104 -103 -185 -107 -60 -4
-75 -1 -119 24 -62 33 -101 82 -118 148 -15 60 -17 173 -2 235 30 134 164 209
303 170z m1254 -5 c49 -20 100 -70 123 -119 27 -58 27 -262 0 -320 -38 -83
-120 -135 -211 -135 -62 0 -114 21 -159 63 -58 55 -71 96 -71 230 0 132 11
171 63 226 64 67 171 90 255 55z m1260 -10 c91 -45 132 -128 132 -269 0 -139
-36 -215 -125 -266 -96 -55 -215 -34 -288 51 -47 56 -57 92 -57 214 0 128 13
169 71 228 74 74 172 89 267 42z m-2720 -694 c70 -27 183 -27 258 -1 53 19 56
19 108 1 60 -20 116 -48 116 -56 0 -4 -14 -22 -31 -42 -65 -74 -74 -109 -74
-297 0 -170 0 -171 30 -232 l31 -62 -44 -12 c-107 -30 -213 -130 -248 -234
l-17 -49 -12 41 c-32 109 -131 201 -258 243 -21 6 -36 15 -35 18 57 106 62
126 66 252 5 156 -11 229 -69 314 -48 71 -45 77 58 112 37 13 68 24 68 24 0 0
24 -9 53 -20z m1261 -6 c62 -20 175 -17 240 5 53 19 54 19 116 -3 34 -11 72
-28 85 -37 l23 -15 -35 -46 c-63 -83 -73 -123 -73 -303 0 -160 0 -160 31 -222
l32 -62 -52 -17 c-64 -21 -114 -52 -161 -101 -38 -39 -85 -121 -85 -148 0 -8
-4 -15 -10 -15 -5 0 -10 7 -10 15 0 21 -37 92 -69 133 -34 43 -114 96 -178
117 l-51 17 32 61 c31 62 31 63 31 222 0 180 -10 220 -73 303 l-35 46 23 15
c35 24 143 60 160 54 8 -3 35 -12 59 -19z m1236 2 c59 -22 183 -20 247 4 l53
20 62 -21 c35 -11 72 -28 84 -38 l21 -17 -41 -59 c-58 -85 -74 -157 -69 -314
3 -128 8 -144 66 -253 1 -3 -14 -12 -35 -18 -127 -42 -226 -134 -258 -243
l-12 -41 -17 49 c-35 104 -141 204 -248 234 l-44 12 31 62 c30 61 30 62 30
232 0 188 -9 223 -74 297 -17 20 -31 38 -31 42 0 16 155 77 180 71 8 -2 33
-11 55 -19z m-2869 -132 c30 -18 60 -48 79 -78 27 -45 30 -58 34 -158 4 -130
-8 -182 -56 -238 -73 -85 -183 -109 -278 -59 -56 28 -109 91 -125 147 -14 53
-12 201 4 255 44 147 213 211 342 131z m1220 12 c58 -27 106 -80 123 -135 17
-58 14 -244 -5 -289 -30 -72 -106 -131 -187 -146 -87 -16 -207 53 -243 139
-22 54 -19 268 5 321 51 113 192 164 307 110z m1215 12 c52 -15 117 -73 140
-122 15 -33 19 -66 19 -164 0 -142 -9 -171 -70 -231 -95 -92 -233 -88 -327 11
-51 53 -63 94 -63 215 0 128 9 165 52 217 59 71 159 101 249 74z m1276 -11
c43 -22 87 -68 109 -114 22 -47 32 -218 15 -280 -50 -184 -280 -237 -403 -93
-46 53 -58 98 -58 216 1 150 35 219 132 269 45 22 62 26 113 22 34 -2 75 -12
92 -20z"/>
<path d="M3771 3954 c-12 -15 -21 -31 -21 -35 0 -5 -60 -9 -133 -9 -144 0
-169 -8 -181 -55 -4 -15 0 -37 9 -55 10 -20 15 -58 15 -120 0 -87 -1 -91 -24
-100 -49 -18 -61 -82 -23 -118 21 -20 34 -22 128 -22 97 0 107 2 127 23 39 41
21 108 -33 121 -24 6 -25 9 -25 91 l0 85 70 0 70 0 0 -195 0 -195 -45 0 c-57
0 -91 -16 -105 -49 -13 -33 0 -75 29 -90 12 -7 92 -11 201 -11 179 0 181 0
205 25 30 29 32 64 6 96 -14 18 -31 23 -80 27 l-61 4 0 194 0 194 70 0 70 0 0
-84 c0 -83 0 -84 -29 -95 -27 -12 -51 -47 -51 -75 0 -7 9 -25 21 -40 20 -25
24 -26 130 -26 96 0 111 2 129 20 35 35 21 102 -26 120 -23 9 -24 13 -24 102
1 66 5 99 15 112 22 29 18 64 -10 91 -23 24 -29 25 -160 25 -113 0 -135 2
-135 15 0 27 -38 55 -74 55 -25 0 -40 -7 -55 -26z"/>
</g>
</svg>
