<?xml version="1.0" standalone="no"?>
<!DOCTYPE svg PUBLIC "-//W3C//DTD SVG 20010904//EN"
 "http://www.w3.org/TR/2001/REC-SVG-20010904/DTD/svg10.dtd">
<svg version="1.0" xmlns="http://www.w3.org/2000/svg"
 width="512.000000pt" height="512.000000pt" viewBox="0 0 512.000000 512.000000"
 preserveAspectRatio="xMidYMid meet">
<metadata>
Created by potrace 1.16, written by Peter Selinger 2001-2019
</metadata>
<g transform="translate(0.000000,512.000000) scale(0.100000,-0.100000)"
fill="#FFFFFF" stroke="none">
<path d="M2433 5106 c-104 -34 -204 -123 -251 -224 -25 -52 -27 -68 -27 -185
l-1 -127 -568 -329 -569 -328 -62 47 c-258 195 -617 52 -667 -266 -27 -176 63
-348 225 -429 38 -19 78 -35 88 -35 18 0 19 -23 19 -670 0 -647 -1 -670 -19
-670 -10 0 -50 -16 -88 -35 -352 -176 -281 -700 105 -775 121 -24 236 3 337
80 l62 47 569 -328 568 -329 1 -127 c0 -118 2 -133 27 -186 38 -80 117 -160
197 -200 62 -30 71 -32 181 -32 110 0 119 2 181 32 80 40 159 120 197 200 25
53 27 68 27 186 l1 127 569 329 569 328 49 -38 c80 -63 135 -65 164 -4 14 28
14 38 3 64 -7 17 -16 31 -20 31 -17 0 -93 85 -111 123 -25 55 -25 148 0 203
23 51 76 105 127 129 164 78 357 -46 357 -230 0 -81 -30 -143 -99 -201 -48
-41 -54 -51 -54 -84 0 -45 35 -80 80 -80 59 0 171 114 208 213 77 205 -7 425
-201 522 -38 19 -78 35 -88 35 -18 0 -19 23 -19 670 0 647 1 670 19 670 10 0
50 16 88 35 308 154 305 589 -5 742 -72 36 -81 38 -171 38 -119 0 -179 -19
-266 -85 l-62 -47 -569 328 -568 329 -1 127 c0 118 -2 133 -27 186 -37 80
-117 160 -197 199 -58 29 -75 33 -165 35 -65 2 -116 -2 -143 -11z m221 -160
c49 -20 112 -81 135 -130 25 -50 28 -149 7 -200 -20 -49 -81 -112 -130 -135
-50 -25 -149 -28 -200 -7 -49 20 -112 81 -135 130 -25 50 -28 149 -7 200 20
48 80 111 129 135 50 25 150 28 201 7z m-361 -552 c22 -20 65 -48 96 -63 50
-23 68 -26 171 -26 103 0 121 3 171 26 31 15 74 43 96 63 22 20 44 36 48 36 4
0 265 -149 580 -331 l573 -330 -9 -32 c-14 -49 -11 -168 6 -224 35 -119 146
-234 262 -270 l53 -17 0 -666 0 -666 -53 -17 c-116 -36 -227 -151 -262 -270
-17 -56 -20 -175 -6 -224 l9 -32 -573 -330 c-315 -182 -576 -331 -580 -331 -4
0 -26 16 -48 36 -22 20 -65 48 -96 63 -50 23 -68 26 -171 26 -103 0 -121 -3
-171 -26 -31 -15 -74 -43 -96 -63 -22 -20 -44 -36 -48 -36 -4 0 -265 149 -580
331 l-573 331 9 31 c14 49 11 168 -6 224 -35 119 -146 234 -262 270 l-53 17 0
666 0 666 53 17 c118 37 228 152 263 275 15 50 17 197 3 239 -4 11 1121 672
1145 673 5 0 27 -16 49 -36z m-1474 -540 c217 -118 150 -441 -98 -471 -143
-17 -274 104 -274 252 -1 193 202 312 372 219z m3725 2 c86 -50 129 -124 129
-221 0 -110 -70 -206 -176 -241 -158 -52 -326 70 -327 238 0 114 60 199 175
245 48 20 147 10 199 -21z m-3739 -2142 c45 -21 98 -72 121 -116 21 -41 29
-133 15 -183 -25 -92 -118 -170 -219 -182 -64 -7 -136 16 -190 62 -144 124
-99 363 82 429 51 19 140 15 191 -10z m1849 -1068 c49 -20 112 -81 135 -130
25 -50 28 -149 7 -200 -20 -49 -81 -112 -130 -135 -50 -25 -149 -28 -200 -7
-49 20 -112 81 -135 130 -25 50 -28 149 -7 200 20 48 80 111 129 135 50 25
150 28 201 7z"/>
<path d="M2490 3967 c-37 -14 -1066 -606 -1111 -639 -15 -11 -37 -39 -50 -61
l-24 -42 0 -665 c0 -734 -4 -692 64 -755 48 -46 1107 -653 1152 -660 21 -4 57
-4 78 0 45 7 1104 614 1152 660 60 56 64 71 67 296 l3 206 -24 29 c-32 37 -90
39 -118 5 -17 -21 -19 -42 -19 -207 0 -176 -1 -184 -22 -208 -13 -13 -228
-142 -478 -286 -250 -144 -470 -271 -487 -282 l-33 -20 0 589 1 588 132 75
c72 41 135 77 139 78 5 2 8 -82 8 -188 0 -204 5 -232 52 -264 48 -34 93 -22
246 66 89 51 152 94 165 113 21 28 22 43 27 297 l5 268 120 69 120 70 5 -256
c6 -286 5 -283 81 -283 29 0 42 6 59 27 21 26 21 34 18 333 -3 332 -3 333 -63
393 -24 23 -310 192 -971 571 -165 95 -221 111 -294 83z m585 -437 c272 -157
494 -287 494 -290 0 -3 -53 -36 -119 -73 -107 -61 -122 -67 -142 -56 -53 28
-974 562 -981 569 -10 9 213 140 235 137 10 -1 241 -130 513 -287z m-417 -232
c454 -263 502 -293 485 -305 -10 -8 -46 -30 -80 -49 l-61 -34 -504 291 c-277
160 -504 292 -506 294 -2 2 146 91 157 94 2 1 231 -130 509 -291z m-326 -189
c277 -160 504 -292 505 -293 6 -5 -271 -157 -282 -154 -19 4 -1004 571 -1004
578 0 6 260 158 271 159 4 1 234 -130 510 -290z m-310 -331 l457 -263 1 -589
0 -588 -22 14 c-13 8 -232 135 -488 283 -256 147 -475 277 -487 288 l-23 20 0
580 0 579 53 -31 c28 -17 258 -149 509 -293z m1228 -103 l0 -185 -37 -23 c-21
-13 -59 -35 -85 -50 l-48 -28 0 189 0 188 78 46 c42 26 80 47 85 47 4 1 7 -82
7 -184z"/>
</g>
</svg>
